<svg width="32" height="32" viewBox="0 0 32 32" fill="none" xmlns="http://www.w3.org/2000/svg">
<rect width="32" height="32" rx="4.57143" fill="url(#paint0_linear_2142_6527)"></rect>
<g clip-path="url(#clip0_2142_6527)">
<path d="M16.8097 23.5824C16.794 23.7005 16.7598 23.8153 16.7083 23.9227C16.2596 24.8851 15.8822 25.8769 15.4945 26.8642C15.4676 26.9321 15.4622 27.0273 15.3713 27.0445C15.2649 27.0649 15.235 26.9624 15.1885 26.9007C13.3868 24.5122 11.5866 22.1226 9.78796 19.7319C8.15003 17.5476 6.51863 15.3592 4.89375 13.1667L2.97967 10.5986C2.9591 10.5743 2.94012 10.5486 2.92286 10.5218C2.89599 10.4747 2.82996 10.4321 2.86988 10.3714C2.90251 10.3227 2.9647 10.3492 3.01384 10.3569C3.48756 10.4282 3.96435 10.4843 4.43423 10.5767C5.47699 10.7772 6.4992 11.0726 7.48808 11.4592C8.8459 11.9964 9.87971 12.8905 10.646 14.1352C11.6851 15.8235 12.7873 17.47 13.8798 19.1234C14.8168 20.5418 15.7572 21.9582 16.7011 23.3725C16.7464 23.4412 16.8016 23.506 16.8097 23.5824Z" fill="white"></path>
<path d="M25.7946 10.6973C25.7271 10.8072 25.6909 10.8231 25.6341 10.8772C23.4376 12.9707 21.5139 15.3326 19.9084 17.9071C19.0639 19.2577 18.2833 20.6442 17.5667 22.0664C17.4538 22.2909 17.4231 22.2905 17.2857 22.0833C16.6323 21.0974 15.9788 20.1118 15.3251 19.1265C15.1267 18.826 15.1355 18.826 15.3835 18.5598C16.3079 17.5679 17.2646 16.6079 18.28 15.7092C19.7234 14.4319 21.2478 13.2604 22.8813 12.2332C23.6958 11.715 24.5373 11.2405 25.4023 10.8116C25.6253 10.7054 25.6762 10.7054 25.7946 10.6973Z" fill="white"></path>
<path d="M21.9261 11.8262C21.7207 11.9452 21.5545 12.0434 21.3887 12.139C20.0312 12.9118 18.8078 13.8656 17.6408 14.8974C16.6041 15.8204 15.6285 16.8098 14.7201 17.8592C14.5911 18.0073 14.537 18.007 14.4245 17.8535C14.0575 17.3527 13.7305 16.8259 13.4068 16.2968C13.3182 16.1517 13.3416 16.0666 13.479 15.9657C15.3601 14.5701 17.3989 13.4597 19.5606 12.5691C20.2404 12.2874 20.9453 12.0291 21.6523 11.8251C21.7222 11.8059 21.8051 11.7742 21.9261 11.8262Z" fill="white"></path>
<path d="M27.3589 7.36043C27.3343 7.42016 27.2778 7.42712 27.23 7.44067C26.8508 7.5484 26.4745 7.66931 26.0908 7.75432C25.7588 7.8276 25.562 8.00861 25.4812 8.36292C25.3828 8.79565 25.2556 9.22104 25.1405 9.64974C25.1284 9.69371 25.1319 9.75967 25.0712 9.75674C25.0245 9.75344 25.0248 9.69445 25.0147 9.65414C24.9108 9.23534 24.7961 8.81873 24.7004 8.39736C24.6207 8.04781 24.4422 7.82687 24.096 7.75725C23.6995 7.67411 23.3081 7.56582 22.924 7.43298C22.8786 7.41759 22.8037 7.42529 22.8089 7.35127C22.8131 7.29301 22.8782 7.30071 22.9222 7.28825C23.3291 7.171 23.7328 7.04093 24.1435 6.94237C24.4613 6.86615 24.6287 6.66499 24.7008 6.34439C24.7909 5.94061 24.884 5.53756 24.9801 5.13525C24.9971 5.06196 24.9891 4.94288 25.0768 4.94435C25.1645 4.94581 25.1565 5.066 25.1756 5.13818C25.2837 5.54965 25.3946 5.96076 25.4875 6.3759C25.5568 6.68405 25.7252 6.85882 26.0156 6.93321C26.4249 7.038 26.83 7.16184 27.2362 7.28019C27.2823 7.29302 27.345 7.28752 27.3589 7.36043Z" fill="white"></path>
</g>
<defs>
<linearGradient id="paint0_linear_2142_6527" x1="16" y1="0" x2="16" y2="32" gradientUnits="userSpaceOnUse">
<stop stop-color="#2B8B8D"></stop>
<stop offset="0.885519" stop-color="#1A283F"></stop>
</linearGradient>
<clipPath id="clip0_2142_6527">
<rect width="26.2857" height="22.0952" fill="white" transform="translate(2.85708 4.95215)"></rect>
</clipPath>
</defs>
</svg>