<svg xmlns="http://www.w3.org/2000/svg" width="19.124" height="19.118" viewBox="0 0 19.124 19.118" fill="none">
  <path d="M 19.069 1.048 L 18.076 0.054 C 18.038 0.016 17.991 0 17.942 0 C 17.893 0 17.846 0.019 17.808 0.054 L 16.025 1.838 C 15.249 1.312 14.334 1.032 13.397 1.034 C 12.197 1.034 10.997 1.491 10.081 2.407 L 7.693 4.795 C 7.658 4.831 7.638 4.878 7.638 4.928 C 7.638 4.977 7.658 5.025 7.693 5.06 L 14.061 11.428 C 14.098 11.466 14.145 11.482 14.194 11.482 C 14.241 11.482 14.29 11.463 14.328 11.428 L 16.716 9.04 C 18.331 7.423 18.521 4.922 17.286 3.098 L 19.069 1.315 C 19.142 1.24 19.142 1.12 19.069 1.048 L 19.069 1.048 Z M 15.587 7.913 L 14.194 9.305 L 9.816 4.927 L 11.208 3.534 C 11.792 2.951 12.57 2.627 13.397 2.627 C 14.225 2.627 15.001 2.948 15.587 3.534 C 16.17 4.118 16.494 4.896 16.494 5.723 C 16.494 6.551 16.17 7.327 15.587 7.913 L 15.587 7.913 Z M 11.129 10.373 C 11.093 10.339 11.046 10.319 10.996 10.319 C 10.947 10.319 10.899 10.339 10.864 10.373 L 9.303 11.934 L 7.187 9.818 L 8.75 8.255 C 8.822 8.182 8.822 8.063 8.75 7.99 L 7.897 7.137 C 7.861 7.102 7.814 7.082 7.764 7.082 C 7.715 7.082 7.667 7.102 7.632 7.137 L 6.069 8.7 L 5.061 7.692 C 5.043 7.675 5.022 7.661 4.999 7.652 C 4.976 7.642 4.952 7.638 4.927 7.638 C 4.88 7.638 4.831 7.657 4.794 7.692 L 2.408 10.08 C 0.793 11.698 0.603 14.198 1.838 16.022 L 0.054 17.805 C 0.02 17.841 0 17.888 0 17.938 C 0 17.987 0.02 18.035 0.054 18.07 L 1.048 19.064 C 1.086 19.102 1.133 19.118 1.182 19.118 C 1.231 19.118 1.278 19.099 1.315 19.064 L 3.099 17.28 C 3.889 17.817 4.808 18.084 5.726 18.084 C 6.926 18.084 8.126 17.627 9.043 16.711 L 11.431 14.323 C 11.504 14.25 11.504 14.13 11.431 14.058 L 10.423 13.05 L 11.986 11.487 C 12.059 11.414 12.059 11.295 11.986 11.222 L 11.129 10.373 L 11.129 10.373 Z M 7.913 15.586 C 7.626 15.874 7.285 16.103 6.909 16.259 C 6.534 16.414 6.131 16.494 5.724 16.493 C 4.897 16.493 4.121 16.172 3.535 15.586 C 3.247 15.299 3.018 14.958 2.862 14.582 C 2.707 14.206 2.627 13.804 2.628 13.397 C 2.628 12.57 2.949 11.794 3.535 11.208 L 4.927 9.816 L 9.305 14.194 L 7.913 15.586 L 7.913 15.586 Z" fill="currentColor" fill-rule="nonzero"></path>
</svg>