<svg xmlns="http://www.w3.org/2000/svg" width="17.250" height="17.250" viewBox="0 0 17.250 17.250" fill="none">
  <path d="M 7.5 0 L 0.375 0 C 0.169 0 0 0.169 0 0.375 L 0 7.5 C 0 7.706 0.169 7.875 0.375 7.875 L 7.5 7.875 C 7.706 7.875 7.875 7.706 7.875 7.5 L 7.875 0.375 C 7.875 0.169 7.706 0 7.5 0 Z M 6.281 6.281 L 1.594 6.281 L 1.594 1.594 L 6.281 1.594 L 6.281 6.281 Z M 16.875 0 L 9.75 0 C 9.544 0 9.375 0.169 9.375 0.375 L 9.375 7.5 C 9.375 7.706 9.544 7.875 9.75 7.875 L 16.875 7.875 C 17.081 7.875 17.25 7.706 17.25 7.5 L 17.25 0.375 C 17.25 0.169 17.081 0 16.875 0 Z M 15.656 6.281 L 10.969 6.281 L 10.969 1.594 L 15.656 1.594 L 15.656 6.281 Z M 7.5 9.375 L 0.375 9.375 C 0.169 9.375 0 9.544 0 9.75 L 0 16.875 C 0 17.081 0.169 17.25 0.375 17.25 L 7.5 17.25 C 7.706 17.25 7.875 17.081 7.875 16.875 L 7.875 9.75 C 7.875 9.544 7.706 9.375 7.5 9.375 Z M 6.281 15.656 L 1.594 15.656 L 1.594 10.969 L 6.281 10.969 L 6.281 15.656 Z M 16.875 9.375 L 9.75 9.375 C 9.544 9.375 9.375 9.544 9.375 9.75 L 9.375 16.875 C 9.375 17.081 9.544 17.25 9.75 17.25 L 16.875 17.25 C 17.081 17.25 17.25 17.081 17.25 16.875 L 17.25 9.75 C 17.25 9.544 17.081 9.375 16.875 9.375 Z M 15.656 15.656 L 10.969 15.656 L 10.969 10.969 L 15.656 10.969 L 15.656 15.656 Z" fill="currentColor" fill-rule="nonzero"></path>
</svg>