<svg xmlns="http://www.w3.org/2000/svg" width="17.251" height="16.688" viewBox="0 0 17.251 16.688" fill="none">
  <path d="M 16.992 7.777 L 8.138 0.091 C 8.07 0.033 7.983 0 7.891 0 L 5.817 0 C 5.644 0 5.564 0.216 5.695 0.328 L 13.903 7.453 L 0.188 7.453 C 0.084 7.453 0 7.537 0 7.641 L 0 9.047 C 0 9.15 0.084 9.234 0.188 9.234 L 13.901 9.234 L 5.693 16.359 C 5.562 16.474 5.641 16.688 5.815 16.688 L 7.959 16.688 C 8.004 16.688 8.048 16.671 8.081 16.641 L 16.992 8.911 C 17.073 8.84 17.138 8.753 17.183 8.655 C 17.228 8.558 17.251 8.451 17.251 8.344 C 17.251 8.236 17.228 8.13 17.183 8.032 C 17.138 7.934 17.073 7.847 16.992 7.777 L 16.992 7.777 Z" fill="currentColor" fill-rule="nonzero"></path>
</svg>