<svg xmlns="http://www.w3.org/2000/svg" width="18" height="16.500" viewBox="0 0 18 16.500" fill="none">
  <path d="M 17.813 14.813 L 1.688 14.813 L 1.688 0.188 C 1.688 0.084 1.603 0 1.5 0 L 0.188 0 C 0.084 0 0 0.084 0 0.188 L 0 16.313 C 0 16.416 0.084 16.5 0.188 16.5 L 17.813 16.5 C 17.916 16.5 18 16.416 18 16.313 L 18 15 C 18 14.897 17.916 14.813 17.813 14.813 Z M 3.75 12.938 L 5.063 12.938 C 5.166 12.938 5.25 12.853 5.25 12.75 L 5.25 9.375 C 5.25 9.272 5.166 9.188 5.063 9.188 L 3.75 9.188 C 3.647 9.188 3.563 9.272 3.563 9.375 L 3.563 12.75 C 3.563 12.853 3.647 12.938 3.75 12.938 Z M 7.313 12.938 L 8.625 12.938 C 8.728 12.938 8.813 12.853 8.813 12.75 L 8.813 5.25 C 8.813 5.147 8.728 5.063 8.625 5.063 L 7.313 5.063 C 7.209 5.063 7.125 5.147 7.125 5.25 L 7.125 12.75 C 7.125 12.853 7.209 12.938 7.313 12.938 Z M 10.875 12.938 L 12.188 12.938 C 12.291 12.938 12.375 12.853 12.375 12.75 L 12.375 7.078 C 12.375 6.975 12.291 6.891 12.188 6.891 L 10.875 6.891 C 10.772 6.891 10.688 6.975 10.688 7.078 L 10.688 12.75 C 10.688 12.853 10.772 12.938 10.875 12.938 Z M 14.438 12.938 L 15.75 12.938 C 15.853 12.938 15.938 12.853 15.938 12.75 L 15.938 3.375 C 15.938 3.272 15.853 3.188 15.75 3.188 L 14.438 3.188 C 14.334 3.188 14.25 3.272 14.25 3.375 L 14.25 12.75 C 14.25 12.853 14.334 12.938 14.438 12.938 Z" fill="currentColor" fill-rule="nonzero"></path>
</svg>