<svg xmlns="http://www.w3.org/2000/svg" width="15.750" height="20.625" viewBox="0 0 15.750 20.625" fill="none">
  <path d="M 15 16.313 L 14.438 16.313 L 14.438 8.344 C 14.438 5.037 11.993 2.304 8.813 1.849 L 8.813 0.938 C 8.813 0.42 8.393 0 7.875 0 C 7.357 0 6.938 0.42 6.938 0.938 L 6.938 1.849 C 3.757 2.304 1.313 5.037 1.313 8.344 L 1.313 16.313 L 0.75 16.313 C 0.335 16.313 0 16.648 0 17.063 L 0 17.813 C 0 17.916 0.084 18 0.188 18 L 5.25 18 C 5.25 19.448 6.427 20.625 7.875 20.625 C 9.323 20.625 10.5 19.448 10.5 18 L 15.563 18 C 15.666 18 15.75 17.916 15.75 17.813 L 15.75 17.063 C 15.75 16.648 15.415 16.313 15 16.313 Z M 7.875 19.125 C 7.254 19.125 6.75 18.621 6.75 18 L 9 18 C 9 18.621 8.496 19.125 7.875 19.125 Z M 3 16.313 L 3 8.344 C 3 7.041 3.506 5.817 4.427 4.896 C 5.348 3.975 6.572 3.469 7.875 3.469 C 9.178 3.469 10.402 3.975 11.323 4.896 C 12.244 5.817 12.75 7.041 12.75 8.344 L 12.75 16.313 L 3 16.313 Z" fill="currentColor" fill-rule="nonzero"></path>
</svg>