<svg xmlns="http://www.w3.org/2000/svg" width="15.375" height="21" viewBox="0 0 15.375 21" fill="none">
  <path d="M 10.5 19.313 L 4.875 19.313 C 4.772 19.313 4.688 19.397 4.688 19.5 L 4.688 20.25 C 4.688 20.665 5.023 21 5.438 21 L 9.938 21 C 10.352 21 10.688 20.665 10.688 20.25 L 10.688 19.5 C 10.688 19.397 10.603 19.313 10.5 19.313 Z M 7.688 0 C 3.443 0 0 3.443 0 7.688 C 0 10.533 1.547 13.017 3.844 14.346 L 3.844 17.063 C 3.844 17.477 4.179 17.813 4.594 17.813 L 10.781 17.813 C 11.196 17.813 11.531 17.477 11.531 17.063 L 11.531 14.346 C 13.828 13.017 15.375 10.533 15.375 7.688 C 15.375 3.443 11.932 0 7.688 0 Z M 10.685 12.886 L 9.844 13.373 L 9.844 16.125 L 5.531 16.125 L 5.531 13.373 L 4.69 12.886 C 2.845 11.82 1.688 9.855 1.688 7.688 C 1.688 4.373 4.373 1.688 7.688 1.688 C 11.002 1.688 13.688 4.373 13.688 7.688 C 13.688 9.855 12.53 11.82 10.685 12.886 Z" fill="currentColor" fill-rule="nonzero"></path>
</svg>