<svg xmlns="http://www.w3.org/2000/svg" width="18.750" height="18.750" viewBox="0 0 18.750 18.750" fill="none">
  <path d="M 18 1.688 L 14.063 1.688 L 14.063 0.188 C 14.063 0.084 13.978 0 13.875 0 L 12.563 0 C 12.459 0 12.375 0.084 12.375 0.188 L 12.375 1.688 L 6.375 1.688 L 6.375 0.188 C 6.375 0.084 6.291 0 6.188 0 L 4.875 0 C 4.772 0 4.688 0.084 4.688 0.188 L 4.688 1.688 L 0.75 1.688 C 0.335 1.688 0 2.023 0 2.438 L 0 18 C 0 18.415 0.335 18.75 0.75 18.75 L 18 18.75 C 18.415 18.75 18.75 18.415 18.75 18 L 18.75 2.438 C 18.75 2.023 18.415 1.688 18 1.688 Z M 17.063 17.063 L 1.688 17.063 L 1.688 8.156 L 17.063 8.156 L 17.063 17.063 Z M 1.688 6.563 L 1.688 3.375 L 4.688 3.375 L 4.688 4.5 C 4.688 4.603 4.772 4.688 4.875 4.688 L 6.188 4.688 C 6.291 4.688 6.375 4.603 6.375 4.5 L 6.375 3.375 L 12.375 3.375 L 12.375 4.5 C 12.375 4.603 12.459 4.688 12.563 4.688 L 13.875 4.688 C 13.978 4.688 14.063 4.603 14.063 4.5 L 14.063 3.375 L 17.063 3.375 L 17.063 6.563 L 1.688 6.563 Z" fill="currentColor" fill-rule="nonzero"></path>
</svg>