<svg xmlns="http://www.w3.org/2000/svg" width="21" height="21" viewBox="0 0 21 21" fill="none">
  <path d="M 14.882 6.773 L 13.783 6.773 C 13.544 6.773 13.316 6.888 13.176 7.085 L 9.491 12.195 L 7.823 9.879 C 7.682 9.684 7.457 9.567 7.215 9.567 L 6.116 9.567 C 5.964 9.567 5.875 9.741 5.964 9.865 L 8.884 13.915 C 8.953 14.011 9.044 14.09 9.15 14.144 C 9.255 14.198 9.372 14.226 9.49 14.226 C 9.609 14.226 9.725 14.198 9.831 14.144 C 9.936 14.09 10.027 14.011 10.096 13.915 L 15.032 7.071 C 15.123 6.947 15.034 6.773 14.882 6.773 Z" fill="currentColor" fill-rule="nonzero"></path>
  <path d="M 10.5 0 C 4.702 0 0 4.702 0 10.5 C 0 16.298 4.702 21 10.5 21 C 16.298 21 21 16.298 21 10.5 C 21 4.702 16.298 0 10.5 0 Z M 10.5 19.219 C 5.686 19.219 1.781 15.314 1.781 10.5 C 1.781 5.686 5.686 1.781 10.5 1.781 C 15.314 1.781 19.219 5.686 19.219 10.5 C 19.219 15.314 15.314 19.219 10.5 19.219 Z" fill="currentColor" fill-rule="nonzero"></path>
</svg>