<svg xmlns="http://www.w3.org/2000/svg" width="21" height="21" viewBox="0 0 21 21" fill="none">
  <path d="M 10.5 0 C 4.702 0 0 4.702 0 10.5 C 0 16.298 4.702 21 10.5 21 C 16.298 21 21 16.298 21 10.5 C 21 4.702 16.298 0 10.5 0 Z M 10.5 19.219 C 5.686 19.219 1.781 15.314 1.781 10.5 C 1.781 5.686 5.686 1.781 10.5 1.781 C 15.314 1.781 19.219 5.686 19.219 10.5 C 19.219 15.314 15.314 19.219 10.5 19.219 Z" fill="currentColor" fill-rule="nonzero"></path>
  <path d="M 14.595 13.467 L 11.252 11.051 L 11.252 5.25 C 11.252 5.147 11.168 5.063 11.065 5.063 L 9.937 5.063 C 9.834 5.063 9.75 5.147 9.75 5.25 L 9.75 11.705 C 9.75 11.766 9.778 11.822 9.827 11.857 L 13.704 14.684 C 13.788 14.745 13.905 14.726 13.966 14.644 L 14.637 13.73 C 14.698 13.643 14.679 13.526 14.595 13.467 Z" fill="currentColor" fill-rule="nonzero"></path>
</svg>