<svg xmlns="http://www.w3.org/2000/svg" width="21" height="21" viewBox="0 0 21 21" fill="none">
  <path d="M 14.564 6.791 C 14.564 6.688 14.48 6.604 14.377 6.604 L 12.83 6.611 L 10.5 9.388 L 8.173 6.613 L 6.624 6.606 C 6.521 6.606 6.436 6.688 6.436 6.794 C 6.436 6.838 6.453 6.88 6.481 6.916 L 9.53 10.548 L 6.481 14.179 C 6.453 14.213 6.437 14.256 6.436 14.301 C 6.436 14.404 6.521 14.488 6.624 14.488 L 8.173 14.481 L 10.5 11.704 L 12.828 14.479 L 14.375 14.486 C 14.478 14.486 14.562 14.404 14.562 14.298 C 14.562 14.254 14.546 14.212 14.518 14.177 L 11.473 10.546 L 14.522 6.913 C 14.55 6.88 14.564 6.836 14.564 6.791 Z" fill="currentColor" fill-rule="nonzero"></path>
  <path d="M 10.5 0 C 4.702 0 0 4.702 0 10.5 C 0 16.298 4.702 21 10.5 21 C 16.298 21 21 16.298 21 10.5 C 21 4.702 16.298 0 10.5 0 Z M 10.5 19.219 C 5.686 19.219 1.781 15.314 1.781 10.5 C 1.781 5.686 5.686 1.781 10.5 1.781 C 15.314 1.781 19.219 5.686 19.219 10.5 C 19.219 15.314 15.314 19.219 10.5 19.219 Z" fill="currentColor" fill-rule="nonzero"></path>
</svg>