<svg xmlns="http://www.w3.org/2000/svg" width="14.841" height="15.281" viewBox="0 0 14.841 15.281" fill="none">
  <path d="M 8.644 7.641 L 14.796 0.307 C 14.899 0.185 14.813 0 14.653 0 L 12.783 0 C 12.673 0 12.567 0.049 12.495 0.134 L 7.421 6.183 L 2.346 0.134 C 2.276 0.049 2.171 0 2.058 0 L 0.188 0 C 0.028 0 -0.058 0.185 0.045 0.307 L 6.197 7.641 L 0.045 14.974 C 0.022 15.001 0.007 15.035 0.002 15.07 C -0.003 15.105 0.003 15.141 0.018 15.174 C 0.033 15.206 0.057 15.233 0.087 15.252 C 0.117 15.271 0.152 15.281 0.188 15.281 L 2.058 15.281 C 2.168 15.281 2.274 15.232 2.346 15.148 L 7.421 9.098 L 12.495 15.148 C 12.565 15.232 12.671 15.281 12.783 15.281 L 14.653 15.281 C 14.813 15.281 14.899 15.096 14.796 14.974 L 8.644 7.641 Z" fill="currentColor" fill-rule="nonzero"></path>
</svg>