<svg xmlns="http://www.w3.org/2000/svg" width="21" height="14.063" viewBox="0 0 21 14.063" fill="none">
  <path d="M 17.517 4.845 C 16.444 2.013 13.709 0 10.505 0 C 7.301 0 4.566 2.011 3.492 4.842 C 1.484 5.37 0 7.198 0 9.375 C 0 11.965 2.098 14.063 4.685 14.063 L 16.315 14.063 C 18.902 14.063 21 11.965 21 9.375 C 21 7.202 19.521 5.374 17.517 4.845 Z M 18.368 11.43 C 18.099 11.701 17.779 11.915 17.427 12.062 C 17.074 12.208 16.696 12.282 16.315 12.281 L 4.685 12.281 C 3.909 12.281 3.18 11.979 2.632 11.43 C 2.361 11.161 2.147 10.841 2.001 10.488 C 1.855 10.135 1.78 9.757 1.781 9.375 C 1.781 8.719 1.995 8.102 2.395 7.587 C 2.788 7.087 3.331 6.728 3.945 6.563 L 4.833 6.33 L 5.159 5.473 C 5.36 4.938 5.641 4.439 5.995 3.987 C 6.345 3.538 6.759 3.144 7.223 2.817 C 8.187 2.14 9.321 1.781 10.505 1.781 C 11.688 1.781 12.823 2.14 13.786 2.817 C 14.252 3.145 14.665 3.539 15.014 3.987 C 15.368 4.439 15.649 4.941 15.851 5.473 L 16.174 6.328 L 17.06 6.563 C 18.333 6.902 19.219 8.058 19.219 9.375 C 19.219 10.151 18.916 10.882 18.368 11.43 Z" fill="currentColor" fill-rule="nonzero"></path>
</svg>