<svg xmlns="http://www.w3.org/2000/svg" width="21" height="18.750" viewBox="0 0 21 18.750" fill="none">
  <path d="M 20.175 6.413 C 19.648 5.165 18.884 4.031 17.925 3.075 C 16.969 2.116 15.835 1.352 14.588 0.825 C 13.291 0.277 11.918 0 10.5 0 C 9.082 0 7.709 0.277 6.413 0.825 C 5.165 1.352 4.031 2.116 3.075 3.075 C 2.116 4.031 1.352 5.165 0.825 6.413 C 0.277 7.709 0 9.082 0 10.5 C 0 13.61 1.366 16.54 3.748 18.541 L 3.788 18.574 C 3.923 18.687 4.095 18.75 4.27 18.75 L 16.732 18.75 C 16.908 18.75 17.079 18.687 17.215 18.574 L 17.255 18.541 C 19.634 16.54 21 13.61 21 10.5 C 21 9.082 20.721 7.709 20.175 6.413 Z M 16.345 16.969 L 4.655 16.969 C 3.749 16.152 3.025 15.154 2.53 14.04 C 2.035 12.925 1.78 11.719 1.781 10.5 C 1.781 8.17 2.688 5.981 4.336 4.336 C 5.984 2.688 8.173 1.781 10.5 1.781 C 12.83 1.781 15.019 2.688 16.664 4.336 C 18.312 5.984 19.219 8.173 19.219 10.5 C 19.219 12.975 18.176 15.316 16.345 16.969 Z M 13.113 7.254 C 13.078 7.219 13.03 7.199 12.981 7.199 C 12.931 7.199 12.884 7.219 12.848 7.254 L 10.868 9.234 C 10.43 9.117 9.945 9.23 9.6 9.574 C 9.478 9.696 9.381 9.841 9.315 10 C 9.249 10.159 9.215 10.33 9.215 10.502 C 9.215 10.675 9.249 10.845 9.315 11.005 C 9.381 11.164 9.478 11.309 9.6 11.43 C 9.722 11.552 9.866 11.649 10.026 11.715 C 10.185 11.781 10.356 11.815 10.528 11.815 C 10.701 11.815 10.871 11.781 11.031 11.715 C 11.19 11.649 11.334 11.552 11.456 11.43 C 11.619 11.268 11.737 11.065 11.797 10.842 C 11.856 10.62 11.856 10.385 11.796 10.162 L 13.777 8.182 C 13.849 8.109 13.849 7.99 13.777 7.917 L 13.113 7.254 L 13.113 7.254 Z M 9.984 4.875 L 11.016 4.875 C 11.119 4.875 11.203 4.791 11.203 4.688 L 11.203 2.813 C 11.203 2.709 11.119 2.625 11.016 2.625 L 9.984 2.625 C 9.881 2.625 9.797 2.709 9.797 2.813 L 9.797 4.688 C 9.797 4.791 9.881 4.875 9.984 4.875 Z M 16.078 9.984 L 16.078 11.016 C 16.078 11.119 16.163 11.203 16.266 11.203 L 18.141 11.203 C 18.244 11.203 18.328 11.119 18.328 11.016 L 18.328 9.984 C 18.328 9.881 18.244 9.797 18.141 9.797 L 16.266 9.797 C 16.163 9.797 16.078 9.881 16.078 9.984 Z M 16.376 5.362 L 15.647 4.634 C 15.612 4.599 15.564 4.579 15.514 4.579 C 15.465 4.579 15.417 4.599 15.382 4.634 L 14.055 5.96 C 14.021 5.995 14.001 6.043 14.001 6.093 C 14.001 6.142 14.021 6.19 14.055 6.225 L 14.784 6.954 C 14.857 7.027 14.977 7.027 15.049 6.954 L 16.376 5.627 C 16.448 5.555 16.448 5.435 16.376 5.362 Z M 5.627 4.634 C 5.592 4.599 5.545 4.579 5.495 4.579 C 5.445 4.579 5.398 4.599 5.362 4.634 L 4.634 5.362 C 4.599 5.398 4.579 5.445 4.579 5.495 C 4.579 5.545 4.599 5.592 4.634 5.627 L 5.96 6.954 C 6.033 7.027 6.152 7.027 6.225 6.954 L 6.954 6.225 C 7.027 6.152 7.027 6.033 6.954 5.96 L 5.627 4.634 Z M 4.641 9.797 L 2.766 9.797 C 2.662 9.797 2.578 9.881 2.578 9.984 L 2.578 11.016 C 2.578 11.119 2.662 11.203 2.766 11.203 L 4.641 11.203 C 4.744 11.203 4.828 11.119 4.828 11.016 L 4.828 9.984 C 4.828 9.881 4.744 9.797 4.641 9.797 Z" fill="currentColor" fill-rule="nonzero"></path>
</svg>