<svg xmlns="http://www.w3.org/2000/svg" width="16.500" height="21" viewBox="0 0 16.500 21" fill="none">
  <path d="M 15.75 0 L 0.75 0 C 0.335 0 0 0.335 0 0.75 L 0 20.25 C 0 20.665 0.335 21 0.75 21 L 15.75 21 C 16.165 21 16.5 20.665 16.5 20.25 L 16.5 0.75 C 16.5 0.335 16.165 0 15.75 0 Z M 1.688 1.688 L 14.813 1.688 L 14.813 6.563 L 1.688 6.563 L 1.688 1.688 Z M 14.813 12.938 L 1.688 12.938 L 1.688 8.063 L 14.813 8.063 L 14.813 12.938 Z M 14.813 19.313 L 1.688 19.313 L 1.688 14.438 L 14.813 14.438 L 14.813 19.313 Z M 3.375 4.125 C 3.375 4.374 3.474 4.612 3.65 4.788 C 3.825 4.964 4.064 5.063 4.313 5.063 C 4.561 5.063 4.8 4.964 4.975 4.788 C 5.151 4.612 5.25 4.374 5.25 4.125 C 5.25 3.876 5.151 3.638 4.975 3.462 C 4.8 3.286 4.561 3.188 4.313 3.188 C 4.064 3.188 3.825 3.286 3.65 3.462 C 3.474 3.638 3.375 3.876 3.375 4.125 L 3.375 4.125 Z M 3.375 10.5 C 3.375 10.749 3.474 10.987 3.65 11.163 C 3.825 11.339 4.064 11.438 4.313 11.438 C 4.561 11.438 4.8 11.339 4.975 11.163 C 5.151 10.987 5.25 10.749 5.25 10.5 C 5.25 10.251 5.151 10.013 4.975 9.837 C 4.8 9.661 4.561 9.563 4.313 9.563 C 4.064 9.563 3.825 9.661 3.65 9.837 C 3.474 10.013 3.375 10.251 3.375 10.5 L 3.375 10.5 Z M 3.375 16.875 C 3.375 17.124 3.474 17.362 3.65 17.538 C 3.825 17.714 4.064 17.813 4.313 17.813 C 4.561 17.813 4.8 17.714 4.975 17.538 C 5.151 17.362 5.25 17.124 5.25 16.875 C 5.25 16.626 5.151 16.388 4.975 16.212 C 4.8 16.036 4.561 15.938 4.313 15.938 C 4.064 15.938 3.825 16.036 3.65 16.212 C 3.474 16.388 3.375 16.626 3.375 16.875 L 3.375 16.875 Z" fill="currentColor" fill-rule="nonzero"></path>
</svg>