<svg xmlns="http://www.w3.org/2000/svg" width="18" height="18.750" viewBox="0 0 18 18.750" fill="none">
  <path d="M 5.438 1.688 L 5.25 1.688 C 5.353 1.688 5.438 1.603 5.438 1.5 L 5.438 1.688 L 12.563 1.688 L 12.563 1.5 C 12.563 1.603 12.647 1.688 12.75 1.688 L 12.563 1.688 L 12.563 3.375 L 14.25 3.375 L 14.25 1.5 C 14.25 0.673 13.577 0 12.75 0 L 5.25 0 C 4.423 0 3.75 0.673 3.75 1.5 L 3.75 3.375 L 5.438 3.375 L 5.438 1.688 Z M 17.25 3.375 L 0.75 3.375 C 0.335 3.375 0 3.71 0 4.125 L 0 4.875 C 0 4.978 0.084 5.063 0.188 5.063 L 1.603 5.063 L 2.182 17.32 C 2.22 18.12 2.88 18.75 3.68 18.75 L 14.32 18.75 C 15.122 18.75 15.78 18.122 15.818 17.32 L 16.397 5.063 L 17.813 5.063 C 17.916 5.063 18 4.978 18 4.875 L 18 4.125 C 18 3.71 17.665 3.375 17.25 3.375 Z M 14.14 17.063 L 3.86 17.063 L 3.293 5.063 L 14.707 5.063 L 14.14 17.063 Z" fill="currentColor" fill-rule="nonzero"></path>
</svg>