<svg xmlns="http://www.w3.org/2000/svg" width="17.531" height="16.500" viewBox="0 0 17.531 16.500" fill="none">
  <path d="M 8.618 11.742 C 8.636 11.765 8.658 11.783 8.684 11.795 C 8.709 11.808 8.737 11.814 8.766 11.814 C 8.794 11.814 8.822 11.808 8.848 11.795 C 8.873 11.783 8.896 11.765 8.913 11.742 L 11.538 8.421 C 11.634 8.299 11.548 8.119 11.391 8.119 L 9.654 8.119 L 9.654 0.188 C 9.654 0.084 9.57 0 9.466 0 L 8.06 0 C 7.957 0 7.873 0.084 7.873 0.188 L 7.873 8.116 L 6.141 8.116 C 5.984 8.116 5.897 8.297 5.993 8.419 L 8.618 11.742 Z M 17.344 10.922 L 15.938 10.922 C 15.834 10.922 15.75 11.006 15.75 11.109 L 15.75 14.719 L 1.781 14.719 L 1.781 11.109 C 1.781 11.006 1.697 10.922 1.594 10.922 L 0.188 10.922 C 0.084 10.922 0 11.006 0 11.109 L 0 15.75 C 0 16.165 0.335 16.5 0.75 16.5 L 16.781 16.5 C 17.196 16.5 17.531 16.165 17.531 15.75 L 17.531 11.109 C 17.531 11.006 17.447 10.922 17.344 10.922 Z" fill="currentColor" fill-rule="nonzero"></path>
</svg>