<svg xmlns="http://www.w3.org/2000/svg" width="18.750" height="18.750" viewBox="0 0 18.750 18.750" fill="none">
  <path d="M 3.415 15 C 3.462 15 3.509 14.995 3.555 14.988 L 7.498 14.297 C 7.545 14.288 7.589 14.266 7.622 14.231 L 17.557 4.296 C 17.579 4.274 17.596 4.249 17.608 4.22 C 17.62 4.192 17.626 4.162 17.626 4.131 C 17.626 4.1 17.62 4.07 17.608 4.041 C 17.596 4.013 17.579 3.987 17.557 3.966 L 13.662 0.068 C 13.617 0.023 13.559 0 13.495 0 C 13.432 0 13.373 0.023 13.329 0.068 L 3.394 10.003 C 3.359 10.038 3.338 10.08 3.328 10.127 L 2.637 14.07 C 2.614 14.195 2.622 14.324 2.66 14.446 C 2.699 14.568 2.766 14.678 2.857 14.768 C 3.012 14.918 3.206 15 3.415 15 L 3.415 15 Z M 4.995 10.912 L 13.495 2.414 L 15.213 4.132 L 6.712 12.63 L 4.629 12.998 L 4.995 10.912 L 4.995 10.912 Z M 18 16.969 L 0.75 16.969 C 0.335 16.969 0 17.304 0 17.719 L 0 18.563 C 0 18.666 0.084 18.75 0.188 18.75 L 18.563 18.75 C 18.666 18.75 18.75 18.666 18.75 18.563 L 18.75 17.719 C 18.75 17.304 18.415 16.969 18 16.969 Z" fill="currentColor" fill-rule="nonzero"></path>
</svg>