<svg xmlns="http://www.w3.org/2000/svg" width="15.750" height="2.625" viewBox="0 0 15.750 2.625" fill="none">
  <path d="M 0 1.313 C 0 1.485 0.034 1.656 0.1 1.815 C 0.166 1.974 0.263 2.119 0.384 2.241 C 0.506 2.362 0.651 2.459 0.81 2.525 C 0.969 2.591 1.14 2.625 1.313 2.625 C 1.485 2.625 1.656 2.591 1.815 2.525 C 1.974 2.459 2.119 2.362 2.241 2.241 C 2.362 2.119 2.459 1.974 2.525 1.815 C 2.591 1.656 2.625 1.485 2.625 1.313 C 2.625 1.14 2.591 0.969 2.525 0.81 C 2.459 0.651 2.362 0.506 2.241 0.384 C 2.119 0.263 1.974 0.166 1.815 0.1 C 1.656 0.034 1.485 0 1.313 0 C 1.14 0 0.969 0.034 0.81 0.1 C 0.651 0.166 0.506 0.263 0.384 0.384 C 0.263 0.506 0.166 0.651 0.1 0.81 C 0.034 0.969 0 1.14 0 1.313 L 0 1.313 Z M 6.563 1.313 C 6.563 1.661 6.701 1.994 6.947 2.241 C 7.193 2.487 7.527 2.625 7.875 2.625 C 8.223 2.625 8.557 2.487 8.803 2.241 C 9.049 1.994 9.188 1.661 9.188 1.313 C 9.188 0.964 9.049 0.631 8.803 0.384 C 8.557 0.138 8.223 0 7.875 0 C 7.527 0 7.193 0.138 6.947 0.384 C 6.701 0.631 6.563 0.964 6.563 1.313 L 6.563 1.313 Z M 13.125 1.313 C 13.125 1.661 13.263 1.994 13.509 2.241 C 13.756 2.487 14.089 2.625 14.438 2.625 C 14.786 2.625 15.119 2.487 15.366 2.241 C 15.612 1.994 15.75 1.661 15.75 1.313 C 15.75 0.964 15.612 0.631 15.366 0.384 C 15.119 0.138 14.786 0 14.438 0 C 14.089 0 13.756 0.138 13.509 0.384 C 13.263 0.631 13.125 0.964 13.125 1.313 L 13.125 1.313 Z" fill="currentColor" fill-rule="nonzero"></path>
</svg>