<svg xmlns="http://www.w3.org/2000/svg" width="20.436" height="18.066" viewBox="0 0 20.436 18.066" fill="none">
  <path d="M 20.301 8.57 C 19.477 6.835 18.497 5.419 17.36 4.323 L 16.167 5.516 C 17.139 6.445 17.987 7.661 18.719 9.175 C 16.769 13.211 14.001 15.128 10.218 15.128 C 9.083 15.128 8.037 14.953 7.081 14.604 L 5.788 15.896 C 7.117 16.509 8.593 16.816 10.218 16.816 C 14.723 16.816 18.084 14.47 20.301 9.777 C 20.39 9.589 20.436 9.383 20.436 9.174 C 20.436 8.965 20.39 8.759 20.301 8.57 Z M 18.811 1.055 L 17.812 0.055 C 17.794 0.038 17.774 0.024 17.751 0.014 C 17.728 0.005 17.704 0 17.679 0 C 17.655 0 17.63 0.005 17.607 0.014 C 17.585 0.024 17.564 0.038 17.547 0.055 L 14.983 2.617 C 13.57 1.895 11.982 1.534 10.218 1.534 C 5.713 1.534 2.353 3.88 0.135 8.573 C 0.046 8.761 0 8.967 0 9.176 C 0 9.385 0.046 9.591 0.135 9.78 C 1.021 11.645 2.088 13.141 3.335 14.266 L 0.854 16.745 C 0.819 16.78 0.8 16.828 0.8 16.878 C 0.8 16.928 0.819 16.975 0.854 17.01 L 1.855 18.011 C 1.89 18.046 1.938 18.066 1.987 18.066 C 2.037 18.066 2.085 18.046 2.12 18.011 L 18.811 1.321 C 18.828 1.303 18.842 1.283 18.852 1.26 C 18.861 1.237 18.866 1.213 18.866 1.188 C 18.866 1.163 18.861 1.139 18.852 1.116 C 18.842 1.093 18.828 1.073 18.811 1.055 Z M 1.717 9.175 C 3.67 5.139 6.438 3.222 10.218 3.222 C 11.496 3.222 12.659 3.441 13.713 3.887 L 12.065 5.535 C 11.285 5.119 10.392 4.964 9.517 5.094 C 8.642 5.224 7.832 5.632 7.207 6.257 C 6.581 6.883 6.174 7.693 6.044 8.568 C 5.913 9.442 6.068 10.336 6.484 11.116 L 4.529 13.071 C 3.447 12.116 2.514 10.822 1.717 9.175 Z M 7.499 9.175 C 7.5 8.762 7.598 8.354 7.785 7.986 C 7.973 7.618 8.244 7.299 8.578 7.055 C 8.912 6.811 9.299 6.65 9.706 6.584 C 10.114 6.518 10.532 6.549 10.926 6.674 L 7.624 9.977 C 7.541 9.717 7.499 9.447 7.499 9.175 Z" fill="currentColor" fill-rule="nonzero"></path>
  <path d="M 10.125 11.8 C 10.044 11.8 9.964 11.796 9.884 11.789 L 8.646 13.027 C 9.391 13.312 10.202 13.375 10.982 13.209 C 11.762 13.043 12.477 12.655 13.041 12.091 C 13.605 11.527 13.993 10.812 14.159 10.032 C 14.325 9.252 14.262 8.441 13.977 7.697 L 12.739 8.935 C 12.746 9.014 12.75 9.094 12.75 9.175 C 12.75 9.52 12.682 9.861 12.55 10.18 C 12.418 10.498 12.225 10.788 11.981 11.031 C 11.737 11.275 11.448 11.468 11.129 11.6 C 10.811 11.732 10.469 11.8 10.125 11.8 Z" fill="currentColor" fill-rule="nonzero"></path>
</svg>