<svg xmlns="http://www.w3.org/2000/svg" width="20.436" height="15.281" viewBox="0 0 20.436 15.281" fill="none">
  <path d="M 20.301 7.036 C 18.079 2.355 14.72 0 10.218 0 C 5.713 0 2.357 2.355 0.135 7.038 C 0.046 7.227 0 7.433 0 7.642 C 0 7.85 0.046 8.057 0.135 8.245 C 2.357 12.926 5.716 15.281 10.218 15.281 C 14.723 15.281 18.079 12.926 20.301 8.243 C 20.481 7.863 20.481 7.423 20.301 7.036 L 20.301 7.036 Z M 10.218 13.594 C 6.438 13.594 3.67 11.677 1.717 7.641 C 3.67 3.605 6.438 1.688 10.218 1.688 C 13.999 1.688 16.767 3.605 18.719 7.641 C 16.769 11.677 14.001 13.594 10.218 13.594 Z M 10.124 3.516 C 7.846 3.516 5.999 5.363 5.999 7.641 C 5.999 9.919 7.846 11.766 10.124 11.766 C 12.403 11.766 14.249 9.919 14.249 7.641 C 14.249 5.363 12.403 3.516 10.124 3.516 Z M 10.124 10.266 C 8.674 10.266 7.499 9.091 7.499 7.641 C 7.499 6.19 8.674 5.016 10.124 5.016 C 11.575 5.016 12.749 6.19 12.749 7.641 C 12.749 9.091 11.575 10.266 10.124 10.266 Z" fill="currentColor" fill-rule="nonzero"></path>
</svg>