<svg xmlns="http://www.w3.org/2000/svg" width="16.500" height="21" viewBox="0 0 16.500 21" fill="none">
  <path d="M 16.28 5.264 L 11.236 0.22 C 11.095 0.08 10.905 0 10.706 0 L 0.75 0 C 0.335 0 0 0.335 0 0.75 L 0 20.25 C 0 20.665 0.335 21 0.75 21 L 15.75 21 C 16.165 21 16.5 20.665 16.5 20.25 L 16.5 5.796 C 16.5 5.597 16.42 5.405 16.28 5.264 Z M 14.77 6.141 L 10.359 6.141 L 10.359 1.73 L 14.77 6.141 Z M 14.813 19.313 L 1.688 19.313 L 1.688 1.688 L 8.766 1.688 L 8.766 6.75 C 8.766 7.011 8.869 7.261 9.054 7.446 C 9.239 7.631 9.489 7.734 9.75 7.734 L 14.813 7.734 L 14.813 19.313 Z M 8.063 12.984 L 3.75 12.984 C 3.647 12.984 3.563 13.069 3.563 13.172 L 3.563 14.297 C 3.563 14.4 3.647 14.484 3.75 14.484 L 8.063 14.484 C 8.166 14.484 8.25 14.4 8.25 14.297 L 8.25 13.172 C 8.25 13.069 8.166 12.984 8.063 12.984 Z M 3.563 9.984 L 3.563 11.109 C 3.563 11.212 3.647 11.297 3.75 11.297 L 12.75 11.297 C 12.853 11.297 12.938 11.212 12.938 11.109 L 12.938 9.984 C 12.938 9.881 12.853 9.797 12.75 9.797 L 3.75 9.797 C 3.647 9.797 3.563 9.881 3.563 9.984 Z" fill="currentColor" fill-rule="nonzero"></path>
</svg>