<svg xmlns="http://www.w3.org/2000/svg" width="18.748" height="16.781" viewBox="0 0 18.748 16.781" fill="none">
  <path d="M 18.001 0 L 0.746 0 C 0.172 0 -0.187 0.626 0.102 1.125 L 5.553 10.392 L 5.553 16.031 C 5.553 16.446 5.886 16.781 6.299 16.781 L 12.449 16.781 C 12.861 16.781 13.194 16.446 13.194 16.031 L 13.194 10.392 L 18.648 1.125 C 18.934 0.626 18.575 0 18.001 0 Z M 11.516 15.094 L 7.231 15.094 L 7.231 11.438 L 11.518 11.438 L 11.518 15.094 L 11.516 15.094 Z M 11.741 9.548 L 11.518 9.938 L 7.229 9.938 L 7.006 9.548 L 2.359 1.688 L 16.388 1.688 L 11.741 9.548 Z" fill="currentColor" fill-rule="nonzero"></path>
</svg>