<svg xmlns="http://www.w3.org/2000/svg" width="21" height="21" viewBox="0 0 21 21" fill="none">
  <path d="M 18.525 17.271 C 18.53 17.264 18.537 17.257 18.541 17.25 C 20.077 15.424 21 13.071 21 10.5 C 21 7.929 20.077 5.576 18.544 3.75 C 18.539 3.743 18.532 3.738 18.527 3.731 C 18.502 3.701 18.478 3.673 18.452 3.645 C 18.443 3.633 18.434 3.623 18.424 3.612 L 18.328 3.502 L 18.326 3.499 C 18.291 3.459 18.253 3.42 18.218 3.38 L 18.216 3.377 C 18.141 3.298 18.066 3.218 17.988 3.141 L 17.986 3.138 L 17.873 3.026 L 17.866 3.019 C 17.831 2.984 17.796 2.951 17.761 2.918 C 17.749 2.906 17.738 2.895 17.723 2.883 C 17.7 2.859 17.677 2.838 17.653 2.817 C 17.646 2.81 17.637 2.803 17.63 2.794 C 15.759 1.059 13.254 0 10.5 0 C 7.746 0 5.241 1.059 3.368 2.794 C 3.361 2.801 3.352 2.808 3.345 2.817 C 3.321 2.838 3.298 2.862 3.274 2.885 C 3.262 2.897 3.251 2.909 3.237 2.92 C 3.202 2.953 3.166 2.988 3.131 3.021 L 3.124 3.028 L 3.012 3.141 L 3.009 3.143 C 2.932 3.22 2.857 3.3 2.782 3.38 L 2.78 3.382 C 2.742 3.422 2.707 3.462 2.672 3.502 L 2.67 3.504 C 2.637 3.539 2.604 3.577 2.573 3.614 C 2.564 3.626 2.555 3.635 2.545 3.647 C 2.52 3.675 2.496 3.705 2.47 3.734 C 2.466 3.741 2.459 3.745 2.454 3.752 C 0.923 5.576 0 7.929 0 10.5 C 0 13.071 0.923 15.424 2.456 17.25 C 2.461 17.257 2.468 17.264 2.473 17.271 L 2.545 17.358 C 2.555 17.37 2.564 17.379 2.573 17.391 L 2.67 17.501 C 2.67 17.503 2.672 17.503 2.672 17.505 C 2.707 17.545 2.742 17.585 2.78 17.623 L 2.782 17.625 C 2.857 17.705 2.932 17.784 3.007 17.862 L 3.009 17.864 C 3.047 17.902 3.082 17.939 3.12 17.974 L 3.127 17.981 C 3.204 18.059 3.284 18.134 3.363 18.206 C 5.241 19.941 7.746 21 10.5 21 C 13.254 21 15.759 19.941 17.632 18.206 C 17.712 18.133 17.79 18.058 17.866 17.981 L 17.873 17.974 C 17.911 17.937 17.948 17.902 17.984 17.864 L 17.986 17.862 C 18.063 17.784 18.138 17.705 18.211 17.625 L 18.213 17.623 C 18.248 17.583 18.286 17.545 18.321 17.505 C 18.321 17.503 18.323 17.503 18.323 17.501 C 18.356 17.466 18.389 17.428 18.42 17.391 C 18.429 17.379 18.438 17.37 18.448 17.358 C 18.474 17.33 18.5 17.301 18.525 17.271 L 18.525 17.271 Z M 18.621 13.929 C 18.298 14.693 17.871 15.401 17.351 16.043 C 16.765 15.537 16.124 15.097 15.441 14.733 C 15.712 13.634 15.881 12.427 15.926 11.156 L 19.289 11.156 C 19.219 12.115 18.994 13.045 18.621 13.929 Z M 19.289 9.844 L 15.926 9.844 C 15.881 8.573 15.712 7.366 15.441 6.267 C 16.127 5.902 16.767 5.461 17.351 4.957 C 18.482 6.349 19.158 8.055 19.289 9.844 L 19.289 9.844 Z M 13.929 2.379 C 14.859 2.773 15.705 3.316 16.451 4.001 C 16.018 4.369 15.552 4.697 15.059 4.98 C 14.691 3.926 14.22 3.009 13.671 2.276 C 13.758 2.309 13.845 2.344 13.929 2.379 Z M 11.805 18.799 C 11.59 18.968 11.374 19.097 11.156 19.184 L 11.156 14.836 C 12.086 14.901 13.001 15.108 13.868 15.45 C 13.673 16.027 13.448 16.559 13.188 17.039 C 12.78 17.798 12.302 18.405 11.805 18.799 Z M 13.188 3.961 C 13.446 4.444 13.673 4.976 13.868 5.55 C 13.001 5.892 12.086 6.099 11.156 6.164 L 11.156 1.819 C 11.372 1.905 11.59 2.032 11.805 2.203 C 12.302 2.595 12.78 3.202 13.188 3.961 L 13.188 3.961 Z M 11.156 13.521 L 11.156 11.156 L 14.613 11.156 C 14.576 12.192 14.447 13.198 14.231 14.152 L 14.224 14.18 C 13.241 13.807 12.206 13.585 11.156 13.521 L 11.156 13.521 Z M 11.156 9.844 L 11.156 7.479 C 12.23 7.413 13.261 7.186 14.224 6.82 L 14.231 6.848 C 14.447 7.802 14.576 8.805 14.613 9.844 L 11.156 9.844 Z M 9.844 11.156 L 9.844 13.521 C 8.77 13.587 7.739 13.814 6.776 14.18 L 6.769 14.152 C 6.553 13.198 6.424 12.195 6.387 11.156 L 9.844 11.156 Z M 6.387 9.844 C 6.424 8.808 6.553 7.802 6.769 6.848 L 6.776 6.82 C 7.739 7.186 8.768 7.413 9.844 7.479 L 9.844 9.844 L 6.387 9.844 Z M 9.844 14.836 L 9.844 19.181 C 9.628 19.095 9.41 18.968 9.195 18.797 C 8.698 18.405 8.217 17.796 7.809 17.037 C 7.552 16.554 7.324 16.022 7.13 15.448 C 8.002 15.105 8.909 14.902 9.844 14.836 Z M 9.844 6.164 C 8.914 6.099 7.999 5.892 7.132 5.55 C 7.327 4.973 7.552 4.441 7.812 3.961 C 8.22 3.202 8.698 2.592 9.197 2.201 C 9.412 2.032 9.628 1.903 9.846 1.816 L 9.846 6.164 L 9.844 6.164 Z M 7.071 2.379 C 7.158 2.344 7.242 2.309 7.329 2.276 C 6.78 3.009 6.309 3.926 5.941 4.98 C 5.449 4.699 4.983 4.371 4.549 4.001 C 5.295 3.316 6.141 2.773 7.071 2.379 L 7.071 2.379 Z M 2.379 7.071 C 2.702 6.307 3.129 5.599 3.649 4.957 C 4.233 5.461 4.873 5.902 5.559 6.267 C 5.288 7.366 5.119 8.573 5.074 9.844 L 1.711 9.844 C 1.781 8.885 2.006 7.955 2.379 7.071 Z M 1.711 11.156 L 5.074 11.156 C 5.119 12.427 5.288 13.634 5.559 14.733 C 4.876 15.097 4.235 15.537 3.649 16.043 C 2.518 14.651 1.842 12.945 1.711 11.156 L 1.711 11.156 Z M 7.071 18.621 C 6.141 18.227 5.295 17.684 4.549 16.999 C 4.983 16.629 5.449 16.303 5.941 16.02 C 6.309 17.074 6.78 17.991 7.329 18.724 C 7.242 18.691 7.155 18.656 7.071 18.621 Z M 13.929 18.621 C 13.842 18.656 13.758 18.691 13.671 18.724 C 14.22 17.991 14.691 17.074 15.059 16.02 C 15.551 16.301 16.017 16.629 16.451 16.999 C 15.71 17.681 14.856 18.229 13.929 18.621 L 13.929 18.621 Z" fill="currentColor" fill-rule="nonzero"></path>
</svg>