<svg xmlns="http://www.w3.org/2000/svg" width="20.248" height="18.139" viewBox="0 0 20.248 18.139" fill="none">
  <path d="M 19.758 3.717 C 19.444 2.99 18.991 2.331 18.424 1.777 C 17.857 1.221 17.189 0.779 16.455 0.476 C 15.695 0.16 14.879 -0.002 14.055 0 C 12.9 0 11.773 0.316 10.793 0.914 C 10.559 1.057 10.336 1.214 10.125 1.385 C 9.914 1.214 9.691 1.057 9.457 0.914 C 8.477 0.316 7.35 0 6.195 0 C 5.362 0 4.556 0.159 3.795 0.476 C 3.059 0.78 2.395 1.219 1.826 1.777 C 1.259 2.33 0.805 2.989 0.492 3.717 C 0.166 4.474 0 5.278 0 6.105 C 0 6.886 0.159 7.699 0.476 8.527 C 0.741 9.218 1.12 9.935 1.605 10.659 C 2.374 11.805 3.431 13.001 4.744 14.213 C 6.919 16.221 9.073 17.609 9.164 17.665 L 9.72 18.021 C 9.966 18.178 10.282 18.178 10.528 18.021 L 11.084 17.665 C 11.175 17.606 13.327 16.221 15.504 14.213 C 16.816 13.001 17.873 11.805 18.642 10.659 C 19.127 9.935 19.509 9.218 19.772 8.527 C 20.088 7.699 20.248 6.886 20.248 6.105 C 20.25 5.278 20.084 4.474 19.758 3.717 L 19.758 3.717 Z M 10.125 16.167 C 10.125 16.167 1.781 10.821 1.781 6.105 C 1.781 3.717 3.757 1.781 6.195 1.781 C 7.908 1.781 9.394 2.738 10.125 4.134 C 10.856 2.738 12.342 1.781 14.055 1.781 C 16.493 1.781 18.469 3.717 18.469 6.105 C 18.469 10.821 10.125 16.167 10.125 16.167 Z" fill="currentColor" fill-rule="nonzero"></path>
</svg>