<svg xmlns="http://www.w3.org/2000/svg" width="21.249" height="20.068" viewBox="0 0 21.249 20.068" fill="none">
  <path d="M 20.808 9.873 L 11.752 0.822 L 11.145 0.215 C 11.006 0.077 10.819 0 10.624 0 C 10.429 0 10.242 0.077 10.104 0.215 L 0.441 9.873 C 0.299 10.014 0.187 10.182 0.111 10.368 C 0.036 10.553 -0.002 10.751 0 10.951 C 0.009 11.776 0.696 12.435 1.521 12.435 L 2.517 12.435 L 2.517 20.068 L 18.731 20.068 L 18.731 12.435 L 19.749 12.435 C 20.149 12.435 20.527 12.278 20.81 11.994 C 20.95 11.855 21.061 11.689 21.136 11.507 C 21.211 11.325 21.249 11.13 21.249 10.932 C 21.249 10.534 21.092 10.157 20.808 9.873 L 20.808 9.873 Z M 11.937 18.381 L 9.312 18.381 L 9.312 13.6 L 11.937 13.6 L 11.937 18.381 Z M 17.044 10.747 L 17.044 18.381 L 13.437 18.381 L 13.437 13.037 C 13.437 12.519 13.017 12.1 12.499 12.1 L 8.749 12.1 C 8.231 12.1 7.812 12.519 7.812 13.037 L 7.812 18.381 L 4.205 18.381 L 4.205 10.747 L 1.955 10.747 L 10.627 2.082 L 11.168 2.624 L 19.296 10.747 L 17.044 10.747 Z" fill="currentColor" fill-rule="nonzero"></path>
</svg>