<svg xmlns="http://www.w3.org/2000/svg" width="21" height="21" viewBox="0 0 21 21" fill="none">
  <path d="M 10.5 0 C 4.702 0 0 4.702 0 10.5 C 0 16.298 4.702 21 10.5 21 C 16.298 21 21 16.298 21 10.5 C 21 4.702 16.298 0 10.5 0 Z M 10.5 19.219 C 5.686 19.219 1.781 15.314 1.781 10.5 C 1.781 5.686 5.686 1.781 10.5 1.781 C 15.314 1.781 19.219 5.686 19.219 10.5 C 19.219 15.314 15.314 19.219 10.5 19.219 Z" fill="currentColor" fill-rule="nonzero"></path>
  <path d="M 9.375 6.375 C 9.375 6.673 9.494 6.96 9.705 7.17 C 9.915 7.381 10.202 7.5 10.5 7.5 C 10.798 7.5 11.085 7.381 11.295 7.17 C 11.506 6.96 11.625 6.673 11.625 6.375 C 11.625 6.077 11.506 5.79 11.295 5.58 C 11.085 5.369 10.798 5.25 10.5 5.25 C 10.202 5.25 9.915 5.369 9.705 5.58 C 9.494 5.79 9.375 6.077 9.375 6.375 Z M 11.063 9 L 9.938 9 C 9.834 9 9.75 9.084 9.75 9.188 L 9.75 15.563 C 9.75 15.666 9.834 15.75 9.938 15.75 L 11.063 15.75 C 11.166 15.75 11.25 15.666 11.25 15.563 L 11.25 9.188 C 11.25 9.084 11.166 9 11.063 9 Z" fill="currentColor" fill-rule="nonzero"></path>
</svg>