<svg xmlns="http://www.w3.org/2000/svg" width="11.156" height="17.764" viewBox="0 0 11.156 17.764" fill="none">
  <path d="M 11.156 2 L 11.156 0.188 C 11.156 0.031 10.976 -0.056 10.854 0.04 L 0.288 8.293 C 0.199 8.362 0.126 8.452 0.076 8.554 C 0.026 8.656 0 8.768 0 8.882 C 0 8.996 0.026 9.108 0.076 9.21 C 0.126 9.312 0.199 9.402 0.288 9.471 L 10.854 17.724 C 10.978 17.82 11.156 17.733 11.156 17.576 L 11.156 15.764 C 11.156 15.65 11.102 15.539 11.013 15.469 L 2.576 8.883 L 11.013 2.295 C 11.102 2.225 11.156 2.114 11.156 2 L 11.156 2 Z" fill="currentColor" fill-rule="nonzero"></path>
</svg>