<svg xmlns="http://www.w3.org/2000/svg" width="18" height="16.500" viewBox="0 0 18 16.500" fill="none">
  <path d="M 17.813 14.813 L 1.688 14.813 L 1.688 0.188 C 1.688 0.084 1.603 0 1.5 0 L 0.188 0 C 0.084 0 0 0.084 0 0.188 L 0 16.313 C 0 16.416 0.084 16.5 0.188 16.5 L 17.813 16.5 C 17.916 16.5 18 16.416 18 16.313 L 18 15 C 18 14.897 17.916 14.813 17.813 14.813 Z M 4.167 11.196 C 4.24 11.269 4.357 11.269 4.432 11.196 L 7.673 7.971 L 10.664 10.98 C 10.737 11.053 10.856 11.053 10.929 10.98 L 17.384 4.528 C 17.456 4.455 17.456 4.336 17.384 4.263 L 16.455 3.335 C 16.42 3.3 16.373 3.281 16.323 3.281 C 16.273 3.281 16.226 3.3 16.191 3.335 L 10.8 8.723 L 7.814 5.719 C 7.779 5.684 7.731 5.664 7.682 5.664 C 7.632 5.664 7.584 5.684 7.549 5.719 L 3.241 10.001 C 3.207 10.036 3.187 10.084 3.187 10.133 C 3.187 10.183 3.207 10.23 3.241 10.266 L 4.167 11.196 Z" fill="currentColor" fill-rule="nonzero"></path>
</svg>