<svg xmlns="http://www.w3.org/2000/svg" width="18.001" height="17.999" viewBox="0 0 18.001 17.999" fill="none">
  <path d="M 10.454 12.596 C 10.419 12.562 10.371 12.542 10.322 12.542 C 10.272 12.542 10.225 12.562 10.189 12.596 L 7.466 15.32 C 6.205 16.581 4.077 16.714 2.685 15.32 C 1.29 13.925 1.424 11.8 2.685 10.539 L 5.408 7.815 C 5.481 7.743 5.481 7.623 5.408 7.55 L 4.475 6.618 C 4.44 6.583 4.393 6.563 4.343 6.563 C 4.293 6.563 4.246 6.583 4.211 6.618 L 1.487 9.341 C -0.496 11.324 -0.496 14.532 1.487 16.513 C 3.47 18.493 6.679 18.496 8.659 16.513 L 11.382 13.789 C 11.455 13.717 11.455 13.597 11.382 13.525 L 10.454 12.596 Z M 16.515 1.487 C 14.532 -0.496 11.324 -0.496 9.343 1.487 L 6.618 4.211 C 6.583 4.246 6.563 4.293 6.563 4.343 C 6.563 4.393 6.583 4.44 6.618 4.475 L 7.548 5.406 C 7.621 5.479 7.74 5.479 7.813 5.406 L 10.536 2.682 C 11.797 1.421 13.925 1.288 15.318 2.682 C 16.712 4.077 16.579 6.203 15.318 7.464 L 12.594 10.187 C 12.559 10.222 12.54 10.27 12.54 10.32 C 12.54 10.369 12.559 10.417 12.594 10.452 L 13.527 11.385 C 13.6 11.457 13.719 11.457 13.792 11.385 L 16.515 8.661 C 18.496 6.679 18.496 3.47 16.515 1.487 L 16.515 1.487 Z M 11.3 5.727 C 11.265 5.692 11.218 5.672 11.168 5.672 C 11.118 5.672 11.071 5.692 11.036 5.727 L 5.727 11.033 C 5.692 11.068 5.672 11.116 5.672 11.166 C 5.672 11.215 5.692 11.263 5.727 11.298 L 6.655 12.226 C 6.728 12.299 6.847 12.299 6.92 12.226 L 12.226 6.92 C 12.299 6.847 12.299 6.728 12.226 6.655 L 11.3 5.727 Z" fill="currentColor" fill-rule="nonzero"></path>
</svg>