<svg xmlns="http://www.w3.org/2000/svg" width="16.500" height="18.750" viewBox="0 0 16.500 18.750" fill="none">
  <path d="M 15.75 8.25 L 14.156 8.25 L 14.156 3 C 14.156 1.343 12.813 0 11.156 0 L 5.344 0 C 3.687 0 2.344 1.343 2.344 3 L 2.344 8.25 L 0.75 8.25 C 0.335 8.25 0 8.585 0 9 L 0 18 C 0 18.415 0.335 18.75 0.75 18.75 L 15.75 18.75 C 16.165 18.75 16.5 18.415 16.5 18 L 16.5 9 C 16.5 8.585 16.165 8.25 15.75 8.25 Z M 4.031 3 C 4.031 2.276 4.62 1.688 5.344 1.688 L 11.156 1.688 C 11.88 1.688 12.469 2.276 12.469 3 L 12.469 8.25 L 4.031 8.25 L 4.031 3 Z M 14.813 17.063 L 1.688 17.063 L 1.688 9.938 L 14.813 9.938 L 14.813 17.063 Z M 7.594 13.805 L 7.594 15.047 C 7.594 15.15 7.678 15.234 7.781 15.234 L 8.719 15.234 C 8.822 15.234 8.906 15.15 8.906 15.047 L 8.906 13.805 C 9.1 13.666 9.244 13.469 9.319 13.243 C 9.393 13.017 9.394 12.773 9.321 12.546 C 9.248 12.319 9.105 12.122 8.913 11.981 C 8.72 11.841 8.488 11.765 8.25 11.765 C 8.012 11.765 7.78 11.841 7.587 11.981 C 7.395 12.122 7.252 12.319 7.179 12.546 C 7.106 12.773 7.107 13.017 7.181 13.243 C 7.256 13.469 7.4 13.666 7.594 13.805 L 7.594 13.805 Z" fill="currentColor" fill-rule="nonzero"></path>
</svg>