<svg xmlns="http://www.w3.org/2000/svg" width="20.578" height="20.156" viewBox="0 0 20.578 20.156" fill="none">
  <path d="M 18.422 15.234 L 16.775 15.234 C 16.662 15.234 16.557 15.284 16.486 15.37 C 16.322 15.57 16.147 15.762 15.961 15.945 C 15.204 16.703 14.307 17.307 13.32 17.723 C 12.297 18.155 11.198 18.377 10.088 18.375 C 8.965 18.375 7.878 18.155 6.856 17.723 C 5.869 17.307 4.972 16.703 4.215 15.945 C 3.456 15.189 2.851 14.294 2.433 13.308 C 2 12.286 1.782 11.201 1.782 10.078 C 1.782 8.956 2.002 7.87 2.433 6.848 C 2.851 5.862 3.451 4.973 4.215 4.212 C 4.979 3.45 5.867 2.85 6.856 2.433 C 7.878 2.002 8.965 1.781 10.088 1.781 C 11.211 1.781 12.298 1.999 13.32 2.433 C 14.309 2.85 15.197 3.45 15.961 4.212 C 16.147 4.397 16.32 4.589 16.486 4.786 C 16.557 4.873 16.665 4.922 16.775 4.922 L 18.422 4.922 C 18.57 4.922 18.661 4.758 18.579 4.634 C 16.782 1.84 13.636 -0.009 10.062 0 C 4.447 0.014 -0.056 4.573 0.001 10.181 C 0.057 15.701 4.552 20.156 10.088 20.156 C 13.653 20.156 16.784 18.309 18.579 15.523 C 18.659 15.398 18.57 15.234 18.422 15.234 Z M 20.506 9.931 L 17.18 7.306 C 17.056 7.207 16.876 7.296 16.876 7.453 L 16.876 9.234 L 9.516 9.234 C 9.413 9.234 9.329 9.319 9.329 9.422 L 9.329 10.734 C 9.329 10.838 9.413 10.922 9.516 10.922 L 16.876 10.922 L 16.876 12.703 C 16.876 12.86 17.058 12.949 17.18 12.851 L 20.506 10.226 C 20.528 10.208 20.547 10.186 20.559 10.16 C 20.571 10.135 20.578 10.107 20.578 10.078 C 20.578 10.05 20.571 10.022 20.559 9.996 C 20.547 9.97 20.528 9.948 20.506 9.931 L 20.506 9.931 Z" fill="currentColor" fill-rule="nonzero"></path>
</svg>