<svg xmlns="http://www.w3.org/2000/svg" width="21" height="16.500" viewBox="0 0 21 16.500" fill="none">
  <path d="M 20.25 0 L 0.75 0 C 0.335 0 0 0.335 0 0.75 L 0 15.75 C 0 16.165 0.335 16.5 0.75 16.5 L 20.25 16.5 C 20.665 16.5 21 16.165 21 15.75 L 21 0.75 C 21 0.335 20.665 0 20.25 0 Z M 19.313 2.597 L 19.313 14.813 L 1.688 14.813 L 1.688 2.597 L 1.041 2.093 L 1.962 0.909 L 2.965 1.69 L 18.037 1.69 L 19.041 0.909 L 19.962 2.093 L 19.313 2.597 L 19.313 2.597 Z M 18.037 1.688 L 10.5 7.547 L 2.962 1.688 L 1.959 0.907 L 1.038 2.091 L 1.685 2.595 L 9.691 8.82 C 9.922 8.998 10.205 9.096 10.496 9.096 C 10.788 9.096 11.071 8.998 11.302 8.82 L 19.313 2.597 L 19.959 2.093 L 19.038 0.909 L 18.037 1.688 Z" fill="currentColor" fill-rule="nonzero"></path>
</svg>