<svg xmlns="http://www.w3.org/2000/svg" width="18.750" height="16.500" viewBox="0 0 18.750 16.500" fill="none">
  <path d="M 18.563 0 L 0.188 0 C 0.084 0 0 0.084 0 0.188 L 0 1.688 C 0 1.791 0.084 1.875 0.188 1.875 L 18.563 1.875 C 18.666 1.875 18.75 1.791 18.75 1.688 L 18.75 0.188 C 18.75 0.084 18.666 0 18.563 0 Z M 18.563 14.625 L 0.188 14.625 C 0.084 14.625 0 14.709 0 14.813 L 0 16.313 C 0 16.416 0.084 16.5 0.188 16.5 L 18.563 16.5 C 18.666 16.5 18.75 16.416 18.75 16.313 L 18.75 14.813 C 18.75 14.709 18.666 14.625 18.563 14.625 Z M 18.563 7.313 L 0.188 7.313 C 0.084 7.313 0 7.397 0 7.5 L 0 9 C 0 9.103 0.084 9.188 0.188 9.188 L 18.563 9.188 C 18.666 9.188 18.75 9.103 18.75 9 L 18.75 7.5 C 18.75 7.397 18.666 7.313 18.563 7.313 Z" fill="currentColor" fill-rule="nonzero"></path>
</svg>