<svg xmlns="http://www.w3.org/2000/svg" width="21.000" height="21" viewBox="0 0 21.000 21" fill="none">
  <path d="M 9.375 10.5 C 9.375 10.798 9.494 11.085 9.705 11.295 C 9.916 11.506 10.202 11.625 10.5 11.625 C 10.799 11.625 11.085 11.506 11.296 11.295 C 11.507 11.085 11.625 10.798 11.625 10.5 C 11.625 10.202 11.507 9.915 11.296 9.705 C 11.085 9.494 10.799 9.375 10.5 9.375 C 10.202 9.375 9.916 9.494 9.705 9.705 C 9.494 9.915 9.375 10.202 9.375 10.5 L 9.375 10.5 Z M 14.063 10.5 C 14.063 10.798 14.181 11.085 14.392 11.295 C 14.603 11.506 14.889 11.625 15.188 11.625 C 15.486 11.625 15.772 11.506 15.983 11.295 C 16.194 11.085 16.313 10.798 16.313 10.5 C 16.313 10.202 16.194 9.915 15.983 9.705 C 15.772 9.494 15.486 9.375 15.188 9.375 C 14.889 9.375 14.603 9.494 14.392 9.705 C 14.181 9.915 14.063 10.202 14.063 10.5 Z M 4.688 10.5 C 4.688 10.798 4.806 11.085 5.017 11.295 C 5.228 11.506 5.514 11.625 5.813 11.625 C 6.111 11.625 6.397 11.506 6.608 11.295 C 6.819 11.085 6.938 10.798 6.938 10.5 C 6.938 10.202 6.819 9.915 6.608 9.705 C 6.397 9.494 6.111 9.375 5.813 9.375 C 5.514 9.375 5.228 9.494 5.017 9.705 C 4.806 9.915 4.688 10.202 4.688 10.5 L 4.688 10.5 Z M 20.185 6.431 C 19.655 5.173 18.895 4.043 17.927 3.073 C 16.966 2.108 15.825 1.341 14.569 0.816 C 13.28 0.274 11.911 0 10.5 0 L 10.453 0 C 9.033 0.007 7.657 0.288 6.363 0.841 C 5.118 1.372 3.987 2.14 3.035 3.103 C 2.077 4.071 1.324 5.196 0.804 6.45 C 0.265 7.748 -0.007 9.129 0 10.549 C 0.008 12.177 0.393 13.781 1.125 15.234 L 1.125 18.797 C 1.125 19.083 1.239 19.357 1.441 19.559 C 1.643 19.761 1.917 19.875 2.203 19.875 L 5.768 19.875 C 7.222 20.607 8.826 20.992 10.453 21 L 10.502 21 C 11.906 21 13.268 20.728 14.55 20.196 C 15.8 19.677 16.937 18.919 17.897 17.965 C 18.865 17.006 19.627 15.886 20.159 14.637 C 20.712 13.343 20.993 11.967 21 10.547 C 21.007 9.12 20.731 7.734 20.185 6.431 L 20.185 6.431 Z M 16.643 16.697 C 15 18.323 12.82 19.219 10.5 19.219 L 10.46 19.219 C 9.047 19.212 7.643 18.86 6.403 18.199 L 6.206 18.094 L 2.906 18.094 L 2.906 14.794 L 2.801 14.597 C 2.14 13.357 1.788 11.953 1.781 10.54 C 1.772 8.203 2.665 6.009 4.303 4.357 C 5.939 2.705 8.126 1.791 10.463 1.781 L 10.502 1.781 C 11.674 1.781 12.811 2.009 13.882 2.459 C 14.927 2.897 15.865 3.527 16.671 4.334 C 17.475 5.137 18.108 6.077 18.546 7.123 C 19.001 8.205 19.228 9.354 19.224 10.54 C 19.21 12.874 18.293 15.061 16.643 16.697 L 16.643 16.697 Z" fill="currentColor" fill-rule="nonzero"></path>
</svg>