<svg xmlns="http://www.w3.org/2000/svg" width="20.626" height="20.626" viewBox="0 0 20.626 20.626" fill="none">
  <path d="M 18.563 10.454 L 10.172 10.454 L 10.172 2.063 C 10.172 1.96 10.088 1.876 9.984 1.876 L 9.375 1.876 C 8.144 1.874 6.924 2.115 5.787 2.586 C 4.649 3.057 3.616 3.748 2.747 4.62 C 1.891 5.474 1.209 6.485 0.738 7.599 C 0.249 8.754 -0.002 9.996 0 11.251 C -0.002 12.482 0.239 13.701 0.71 14.839 C 1.181 15.976 1.873 17.009 2.745 17.879 C 3.605 18.739 4.608 19.416 5.723 19.887 C 6.879 20.377 8.121 20.628 9.375 20.626 C 10.606 20.628 11.826 20.386 12.963 19.915 C 14.101 19.444 15.134 18.753 16.003 17.881 C 16.863 17.021 17.541 16.018 18.012 14.902 C 18.501 13.747 18.752 12.505 18.75 11.251 L 18.75 10.641 C 18.75 10.538 18.666 10.454 18.563 10.454 Z M 14.852 16.777 C 14.127 17.497 13.266 18.067 12.32 18.454 C 11.373 18.841 10.36 19.037 9.338 19.032 C 7.273 19.023 5.332 18.214 3.872 16.754 C 2.402 15.284 1.594 13.33 1.594 11.251 C 1.594 9.172 2.402 7.217 3.872 5.748 C 5.152 4.468 6.799 3.687 8.578 3.509 L 8.578 12.048 L 17.116 12.048 C 16.936 13.836 16.148 15.493 14.852 16.777 L 14.852 16.777 Z M 20.625 9.151 L 20.564 8.49 C 20.365 6.331 19.406 4.294 17.864 2.757 C 16.321 1.217 14.288 0.263 12.117 0.062 L 11.454 0.001 C 11.344 -0.009 11.25 0.076 11.25 0.186 L 11.25 9.188 C 11.25 9.291 11.334 9.376 11.438 9.376 L 20.438 9.352 C 20.548 9.352 20.634 9.259 20.625 9.151 Z M 12.839 7.787 L 12.839 1.773 C 14.315 2.082 15.67 2.813 16.739 3.877 C 17.81 4.946 18.544 6.305 18.848 7.77 L 12.839 7.787 Z" fill="currentColor" fill-rule="nonzero"></path>
</svg>