<svg xmlns="http://www.w3.org/2000/svg" width="16.125" height="16.875" viewBox="0 0 16.125 16.875" fill="none">
  <path d="M 7.359 0 L 8.766 0 C 8.891 0 8.953 0.063 8.953 0.188 L 8.953 16.688 C 8.953 16.813 8.891 16.875 8.766 16.875 L 7.359 16.875 C 7.234 16.875 7.172 16.813 7.172 16.688 L 7.172 0.188 C 7.172 0.063 7.234 0 7.359 0 Z" fill="currentColor" fill-rule="nonzero"></path>
  <path d="M 0.188 7.547 L 15.938 7.547 C 16.063 7.547 16.125 7.609 16.125 7.734 L 16.125 9.141 C 16.125 9.266 16.063 9.328 15.938 9.328 L 0.188 9.328 C 0.063 9.328 0 9.266 0 9.141 L 0 7.734 C 0 7.609 0.063 7.547 0.188 7.547 Z" fill="currentColor" fill-rule="nonzero"></path>
</svg>