<svg xmlns="http://www.w3.org/2000/svg" width="21" height="21" viewBox="0 0 21 21" fill="none">
  <path d="M 10.5 0 C 4.702 0 0 4.702 0 10.5 C 0 16.298 4.702 21 10.5 21 C 16.298 21 21 16.298 21 10.5 C 21 4.702 16.298 0 10.5 0 Z M 10.5 19.219 C 5.686 19.219 1.781 15.314 1.781 10.5 C 1.781 5.686 5.686 1.781 10.5 1.781 C 15.314 1.781 19.219 5.686 19.219 10.5 C 19.219 15.314 15.314 19.219 10.5 19.219 Z" fill="currentColor" fill-rule="nonzero"></path>
  <path d="M 13.116 5.923 C 12.413 5.306 11.484 4.969 10.5 4.969 C 9.516 4.969 8.587 5.309 7.884 5.923 C 7.153 6.563 6.75 7.423 6.75 8.344 L 6.75 8.522 C 6.75 8.625 6.834 8.709 6.938 8.709 L 8.063 8.709 C 8.166 8.709 8.25 8.625 8.25 8.522 L 8.25 8.344 C 8.25 7.31 9.26 6.469 10.5 6.469 C 11.74 6.469 12.75 7.31 12.75 8.344 C 12.75 9.073 12.234 9.741 11.435 10.048 C 10.938 10.238 10.516 10.57 10.214 11.006 C 9.907 11.452 9.748 11.986 9.748 12.527 L 9.748 13.031 C 9.748 13.134 9.832 13.219 9.935 13.219 L 11.06 13.219 C 11.163 13.219 11.248 13.134 11.248 13.031 L 11.248 12.499 C 11.249 12.272 11.319 12.05 11.448 11.863 C 11.577 11.675 11.76 11.531 11.972 11.449 C 13.355 10.917 14.248 9.698 14.248 8.344 C 14.25 7.423 13.847 6.563 13.116 5.923 Z M 9.563 15.656 C 9.563 15.905 9.661 16.143 9.837 16.319 C 10.013 16.495 10.251 16.594 10.5 16.594 C 10.749 16.594 10.987 16.495 11.163 16.319 C 11.339 16.143 11.438 15.905 11.438 15.656 C 11.438 15.408 11.339 15.169 11.163 14.993 C 10.987 14.818 10.749 14.719 10.5 14.719 C 10.251 14.719 10.013 14.818 9.837 14.993 C 9.661 15.169 9.563 15.408 9.563 15.656 Z" fill="currentColor" fill-rule="nonzero"></path>
</svg>