<svg xmlns="http://www.w3.org/2000/svg" width="11.156" height="17.766" viewBox="0 0 11.156 17.766" fill="none">
  <path d="M 10.868 8.292 L 0.302 0.04 C 0.275 0.018 0.242 0.005 0.207 0.001 C 0.172 -0.003 0.136 0.004 0.105 0.019 C 0.073 0.034 0.047 0.058 0.028 0.088 C 0.01 0.118 0 0.153 0 0.188 L 0 1.999 C 0 2.114 0.054 2.224 0.143 2.295 L 8.58 8.883 L 0.143 15.471 C 0.052 15.542 0 15.652 0 15.767 L 0 17.578 C 0 17.735 0.18 17.822 0.302 17.726 L 10.868 9.474 C 10.958 9.404 11.03 9.314 11.08 9.212 C 11.13 9.109 11.156 8.997 11.156 8.883 C 11.156 8.769 11.13 8.657 11.08 8.554 C 11.03 8.452 10.958 8.362 10.868 8.292 Z" fill="currentColor" fill-rule="nonzero"></path>
</svg>