<svg xmlns="http://www.w3.org/2000/svg" width="16.500" height="20.063" viewBox="0 0 16.500 20.063" fill="none">
  <path d="M 16.5 15.281 C 16.5 12.666 14.967 10.406 12.75 9.354 L 12.75 5.468 C 12.75 5.114 12.626 4.772 12.396 4.502 L 8.824 0.267 C 8.674 0.089 8.461 0 8.25 0 C 8.039 0 7.826 0.089 7.676 0.267 L 4.104 4.502 C 3.876 4.772 3.75 5.114 3.75 5.468 L 3.75 9.354 C 1.533 10.406 0 12.666 0 15.281 L 3.668 15.281 C 3.614 15.45 3.586 15.633 3.586 15.839 C 3.586 16.357 3.764 16.863 4.087 17.264 C 4.352 17.592 4.701 17.84 5.098 17.981 C 5.639 19.247 6.87 20.063 8.25 20.063 C 8.932 20.063 9.593 19.861 10.158 19.481 C 10.711 19.111 11.14 18.593 11.4 17.981 C 11.796 17.841 12.146 17.594 12.41 17.266 C 12.734 16.862 12.911 16.36 12.912 15.841 C 12.912 15.645 12.886 15.457 12.839 15.284 L 16.5 15.284 L 16.5 15.281 Z M 14.116 12.595 C 14.337 12.938 14.515 13.305 14.644 13.688 L 12.656 13.688 L 12.656 11.126 C 13.241 11.507 13.739 12.008 14.116 12.595 L 14.116 12.595 Z M 5.344 9.354 L 5.344 5.503 L 8.25 2.058 L 11.156 5.503 L 11.156 13.688 L 5.344 13.688 L 5.344 9.354 Z M 1.856 13.688 C 1.985 13.305 2.163 12.938 2.384 12.595 C 2.766 12.005 3.263 11.505 3.844 11.126 L 3.844 13.688 L 1.856 13.688 Z M 10.971 16.411 C 10.849 16.481 10.709 16.509 10.57 16.491 L 10.113 16.434 L 10.048 16.889 C 9.921 17.777 9.148 18.448 8.25 18.448 C 7.352 18.448 6.579 17.777 6.452 16.889 L 6.387 16.432 L 5.93 16.491 C 5.791 16.507 5.65 16.478 5.529 16.409 C 5.325 16.291 5.198 16.073 5.198 15.837 C 5.198 15.588 5.337 15.382 5.541 15.279 L 10.962 15.279 C 11.168 15.384 11.304 15.591 11.304 15.837 C 11.302 16.076 11.175 16.296 10.971 16.411 Z M 7.125 7.406 C 7.125 7.705 7.244 7.991 7.455 8.202 C 7.665 8.413 7.952 8.531 8.25 8.531 C 8.548 8.531 8.835 8.413 9.045 8.202 C 9.256 7.991 9.375 7.705 9.375 7.406 C 9.375 7.108 9.256 6.822 9.045 6.611 C 8.835 6.4 8.548 6.281 8.25 6.281 C 7.952 6.281 7.665 6.4 7.455 6.611 C 7.244 6.822 7.125 7.108 7.125 7.406 L 7.125 7.406 Z" fill="currentColor" fill-rule="nonzero"></path>
</svg>