<svg xmlns="http://www.w3.org/2000/svg" width="17.339" height="21.565" viewBox="0 0 17.339 21.565" fill="none">
  <path d="M 16.99 2.763 L 9.026 0.049 C 8.93 0.016 8.801 0 8.672 0 C 8.543 0 8.414 0.016 8.318 0.049 L 0.354 2.763 C 0.159 2.829 0 3.054 0 3.26 L 0 14.566 C 0 14.773 0.134 15.045 0.295 15.173 L 8.374 21.469 C 8.456 21.532 8.562 21.565 8.67 21.565 C 8.777 21.565 8.885 21.532 8.965 21.469 L 17.044 15.173 C 17.205 15.047 17.339 14.775 17.339 14.566 L 17.339 3.26 C 17.344 3.054 17.184 2.831 16.99 2.763 L 16.99 2.763 Z M 15.656 14.116 L 8.672 19.559 L 1.688 14.116 L 1.688 4.095 L 8.672 1.713 L 15.656 4.095 L 15.656 14.116 Z M 6.145 9.405 C 6.075 9.309 5.963 9.251 5.841 9.251 L 4.547 9.251 C 4.395 9.251 4.305 9.424 4.395 9.548 L 7.357 13.627 C 7.392 13.675 7.438 13.714 7.491 13.74 C 7.544 13.767 7.602 13.781 7.662 13.781 C 7.721 13.781 7.78 13.767 7.833 13.74 C 7.886 13.714 7.931 13.675 7.966 13.627 L 12.949 6.766 C 13.038 6.642 12.949 6.469 12.797 6.469 L 11.503 6.469 C 11.384 6.469 11.269 6.527 11.198 6.623 L 7.662 11.494 L 6.145 9.405 Z" fill="currentColor" fill-rule="nonzero"></path>
</svg>