<svg xmlns="http://www.w3.org/2000/svg" width="18.750" height="18.750" viewBox="0 0 18.750 18.750" fill="none">
  <path d="M 18.694 17.402 L 12.607 11.316 C 13.552 10.095 14.063 8.602 14.063 7.031 C 14.063 5.152 13.329 3.389 12.002 2.06 C 10.676 0.731 8.909 0 7.031 0 C 5.154 0 3.387 0.734 2.06 2.06 C 0.731 3.387 0 5.152 0 7.031 C 0 8.909 0.734 10.676 2.06 12.002 C 3.387 13.331 5.152 14.063 7.031 14.063 C 8.602 14.063 10.092 13.552 11.313 12.609 L 17.4 18.694 C 17.418 18.712 17.439 18.726 17.462 18.735 C 17.486 18.745 17.511 18.75 17.536 18.75 C 17.561 18.75 17.586 18.745 17.61 18.735 C 17.633 18.726 17.654 18.712 17.672 18.694 L 18.694 17.674 C 18.712 17.656 18.726 17.635 18.735 17.612 C 18.745 17.589 18.75 17.564 18.75 17.538 C 18.75 17.513 18.745 17.488 18.735 17.465 C 18.726 17.441 18.712 17.42 18.694 17.402 L 18.694 17.402 Z M 10.744 10.744 C 9.75 11.735 8.433 12.281 7.031 12.281 C 5.63 12.281 4.313 11.735 3.319 10.744 C 2.327 9.75 1.781 8.433 1.781 7.031 C 1.781 5.63 2.327 4.31 3.319 3.319 C 4.313 2.327 5.63 1.781 7.031 1.781 C 8.433 1.781 9.752 2.325 10.744 3.319 C 11.735 4.313 12.281 5.63 12.281 7.031 C 12.281 8.433 11.735 9.752 10.744 10.744 Z" fill="currentColor" fill-rule="nonzero"></path>
</svg>