<svg xmlns="http://www.w3.org/2000/svg" width="19.880" height="20.999" viewBox="0 0 19.880 20.999" fill="none">
  <path d="M 19.617 13.168 L 18.082 11.856 C 18.155 11.411 18.192 10.956 18.192 10.501 C 18.192 10.046 18.155 9.592 18.082 9.146 L 19.617 7.834 C 19.733 7.735 19.816 7.603 19.855 7.455 C 19.894 7.308 19.887 7.152 19.835 7.009 L 19.814 6.948 C 19.391 5.767 18.759 4.672 17.946 3.716 L 17.904 3.667 C 17.805 3.551 17.674 3.468 17.527 3.428 C 17.38 3.388 17.225 3.394 17.081 3.444 L 15.176 4.121 C 14.473 3.545 13.688 3.09 12.839 2.771 L 12.471 0.779 C 12.443 0.629 12.371 0.491 12.263 0.384 C 12.155 0.276 12.016 0.204 11.866 0.177 L 11.803 0.165 C 10.582 -0.055 9.298 -0.055 8.077 0.165 L 8.013 0.177 C 7.863 0.204 7.725 0.276 7.617 0.384 C 7.509 0.491 7.436 0.629 7.409 0.779 L 7.038 2.781 C 6.197 3.1 5.413 3.554 4.718 4.126 L 2.798 3.444 C 2.655 3.393 2.499 3.387 2.352 3.427 C 2.205 3.467 2.074 3.551 1.976 3.667 L 1.934 3.716 C 1.122 4.673 0.489 5.767 0.066 6.948 L 0.045 7.009 C -0.061 7.302 0.026 7.63 0.263 7.834 L 1.816 9.161 C 1.744 9.601 1.709 10.051 1.709 10.499 C 1.709 10.949 1.744 11.399 1.816 11.837 L 0.263 13.164 C 0.147 13.263 0.064 13.395 0.025 13.542 C -0.014 13.69 -0.007 13.845 0.045 13.989 L 0.066 14.05 C 0.49 15.231 1.118 16.321 1.934 17.282 L 1.976 17.331 C 2.074 17.447 2.206 17.53 2.353 17.57 C 2.499 17.61 2.655 17.604 2.798 17.554 L 4.718 16.871 C 5.416 17.446 6.197 17.9 7.038 18.217 L 7.409 20.218 C 7.436 20.368 7.509 20.506 7.617 20.614 C 7.725 20.721 7.863 20.794 8.013 20.821 L 8.077 20.832 C 9.309 21.054 10.571 21.054 11.803 20.832 L 11.866 20.821 C 12.016 20.794 12.155 20.721 12.263 20.614 C 12.371 20.506 12.443 20.368 12.471 20.218 L 12.839 18.226 C 13.687 17.908 14.477 17.452 15.176 16.876 L 17.081 17.554 C 17.225 17.604 17.38 17.61 17.527 17.57 C 17.674 17.531 17.806 17.447 17.904 17.331 L 17.946 17.282 C 18.762 16.318 19.39 15.231 19.814 14.05 L 19.835 13.989 C 19.941 13.7 19.854 13.372 19.617 13.168 L 19.617 13.168 Z M 16.418 9.423 C 16.477 9.777 16.507 10.14 16.507 10.504 C 16.507 10.867 16.477 11.23 16.418 11.584 L 16.263 12.524 L 18.014 14.021 C 17.749 14.633 17.414 15.212 17.016 15.746 L 14.841 14.975 L 14.105 15.58 C 13.545 16.039 12.921 16.4 12.246 16.654 L 11.353 16.989 L 10.934 19.262 C 10.272 19.337 9.603 19.337 8.941 19.262 L 8.522 16.984 L 7.636 16.644 C 6.968 16.391 6.347 16.03 5.791 15.573 L 5.055 14.966 L 2.866 15.744 C 2.468 15.207 2.135 14.629 1.868 14.019 L 3.638 12.507 L 3.485 11.57 C 3.429 11.221 3.398 10.86 3.398 10.504 C 3.398 10.145 3.427 9.786 3.485 9.437 L 3.638 8.5 L 1.868 6.988 C 2.133 6.376 2.468 5.8 2.866 5.263 L 5.055 6.041 L 5.791 5.434 C 6.347 4.977 6.968 4.616 7.636 4.363 L 8.524 4.028 L 8.944 1.75 C 9.602 1.675 10.275 1.675 10.936 1.75 L 11.355 4.023 L 12.248 4.358 C 12.921 4.611 13.547 4.972 14.107 5.432 L 14.843 6.036 L 17.018 5.265 C 17.416 5.802 17.749 6.381 18.016 6.99 L 16.266 8.488 L 16.418 9.423 Z M 9.942 6.144 C 7.664 6.144 5.817 7.991 5.817 10.269 C 5.817 12.547 7.664 14.394 9.942 14.394 C 12.22 14.394 14.067 12.547 14.067 10.269 C 14.067 7.991 12.22 6.144 9.942 6.144 Z M 11.798 12.125 C 11.555 12.37 11.266 12.563 10.947 12.695 C 10.629 12.827 10.287 12.895 9.942 12.894 C 9.241 12.894 8.583 12.62 8.086 12.125 C 7.842 11.882 7.648 11.593 7.516 11.274 C 7.384 10.955 7.317 10.614 7.317 10.269 C 7.317 9.568 7.591 8.91 8.086 8.413 C 8.583 7.916 9.241 7.644 9.942 7.644 C 10.643 7.644 11.302 7.916 11.798 8.413 C 12.043 8.656 12.236 8.946 12.368 9.264 C 12.5 9.583 12.568 9.924 12.567 10.269 C 12.567 10.97 12.293 11.629 11.798 12.125 Z" fill="currentColor" fill-rule="nonzero"></path>
</svg>