<svg xmlns="http://www.w3.org/2000/svg" width="21.026" height="18.907" viewBox="0 0 21.026 18.907" fill="none">
  <path d="M 20.196 13.404 L 6.239 13.404 L 6.94 11.977 L 18.584 11.955 C 18.977 11.955 19.315 11.674 19.385 11.285 L 20.998 2.259 C 21.04 2.023 20.977 1.779 20.822 1.594 C 20.745 1.503 20.65 1.429 20.542 1.379 C 20.435 1.328 20.317 1.301 20.198 1.301 L 5.386 1.252 L 5.259 0.656 C 5.18 0.277 4.837 0 4.448 0 L 0.827 0 C 0.608 0 0.397 0.087 0.242 0.242 C 0.087 0.397 0 0.608 0 0.827 C 0 1.047 0.087 1.257 0.242 1.412 C 0.397 1.568 0.608 1.655 0.827 1.655 L 3.778 1.655 L 4.331 4.284 L 5.693 10.877 L 3.94 13.739 C 3.849 13.862 3.794 14.008 3.782 14.16 C 3.769 14.313 3.8 14.466 3.87 14.602 C 4.01 14.88 4.294 15.056 4.608 15.056 L 6.08 15.056 C 5.766 15.473 5.596 15.981 5.597 16.502 C 5.597 17.829 6.675 18.907 8.002 18.907 C 9.328 18.907 10.406 17.829 10.406 16.502 C 10.406 15.98 10.233 15.471 9.923 15.056 L 13.699 15.056 C 13.385 15.473 13.216 15.981 13.216 16.502 C 13.216 17.829 14.295 18.907 15.621 18.907 C 16.948 18.907 18.026 17.829 18.026 16.502 C 18.026 15.98 17.852 15.471 17.543 15.056 L 20.198 15.056 C 20.653 15.056 21.026 14.686 21.026 14.229 C 21.024 14.01 20.936 13.8 20.781 13.645 C 20.626 13.491 20.415 13.404 20.196 13.404 L 20.196 13.404 Z M 5.73 2.883 L 19.226 2.927 L 17.904 10.329 L 7.303 10.348 L 5.73 2.883 Z M 8.002 17.243 C 7.594 17.243 7.261 16.91 7.261 16.502 C 7.261 16.095 7.594 15.762 8.002 15.762 C 8.409 15.762 8.742 16.095 8.742 16.502 C 8.742 16.699 8.664 16.887 8.525 17.026 C 8.386 17.165 8.198 17.243 8.002 17.243 L 8.002 17.243 Z M 15.621 17.243 C 15.213 17.243 14.88 16.91 14.88 16.502 C 14.88 16.095 15.213 15.762 15.621 15.762 C 16.029 15.762 16.362 16.095 16.362 16.502 C 16.362 16.699 16.284 16.887 16.145 17.026 C 16.006 17.165 15.818 17.243 15.621 17.243 L 15.621 17.243 Z" fill="currentColor" fill-rule="nonzero"></path>
</svg>