<svg xmlns="http://www.w3.org/2000/svg" width="19.850" height="18.956" viewBox="0 0 19.850 18.956" fill="none">
  <path d="M 19.209 6.675 L 13.258 5.81 L 10.598 0.417 C 10.525 0.27 10.406 0.15 10.258 0.077 C 9.888 -0.105 9.438 0.047 9.253 0.417 L 6.592 5.81 L 0.642 6.675 C 0.478 6.698 0.328 6.776 0.213 6.893 C 0.074 7.036 -0.003 7.228 0 7.427 C 0.003 7.626 0.084 7.816 0.227 7.955 L 4.532 12.152 L 3.515 18.08 C 3.491 18.218 3.507 18.359 3.559 18.489 C 3.612 18.619 3.7 18.731 3.813 18.813 C 3.926 18.895 4.06 18.944 4.2 18.954 C 4.339 18.964 4.479 18.935 4.603 18.87 L 9.925 16.071 L 15.248 18.87 C 15.393 18.947 15.562 18.973 15.724 18.945 C 16.132 18.874 16.406 18.488 16.335 18.08 L 15.318 12.152 L 19.624 7.955 C 19.741 7.84 19.818 7.69 19.842 7.526 C 19.905 7.116 19.619 6.736 19.209 6.675 L 19.209 6.675 Z M 13.507 11.562 L 14.353 16.491 L 9.925 14.166 L 5.498 16.493 L 6.344 11.564 L 2.763 8.072 L 7.713 7.352 L 9.925 2.869 L 12.138 7.352 L 17.088 8.072 L 13.507 11.562 Z" fill="currentColor" fill-rule="nonzero"></path>
</svg>