<svg xmlns="http://www.w3.org/2000/svg" width="19.688" height="19.688" viewBox="0 0 19.688 19.688" fill="none">
  <path d="M 1.781 9.661 C 1.805 8.637 2.016 7.643 2.412 6.708 C 2.817 5.747 3.398 4.887 4.139 4.144 C 4.88 3.401 5.742 2.82 6.703 2.414 C 7.697 1.995 8.752 1.781 9.841 1.781 C 10.931 1.781 11.986 1.995 12.977 2.414 C 13.936 2.819 14.806 3.406 15.539 4.144 C 15.771 4.376 15.989 4.622 16.191 4.88 L 14.78 5.981 C 14.752 6.003 14.731 6.032 14.718 6.065 C 14.706 6.098 14.704 6.134 14.711 6.169 C 14.718 6.203 14.735 6.235 14.76 6.26 C 14.785 6.285 14.816 6.303 14.85 6.312 L 18.968 7.32 C 19.085 7.348 19.2 7.259 19.2 7.139 L 19.219 2.899 C 19.219 2.742 19.038 2.653 18.916 2.752 L 17.595 3.785 C 15.792 1.479 12.989 0 9.839 0 C 4.47 0 0.101 4.303 0 9.652 C -0.001 9.677 0.004 9.701 0.013 9.725 C 0.022 9.748 0.036 9.769 0.053 9.787 C 0.071 9.805 0.092 9.819 0.115 9.829 C 0.138 9.839 0.163 9.844 0.188 9.844 L 1.594 9.844 C 1.697 9.844 1.779 9.762 1.781 9.661 Z M 19.5 9.844 L 18.094 9.844 C 17.991 9.844 17.909 9.926 17.906 10.027 C 17.883 11.051 17.672 12.045 17.276 12.98 C 16.87 13.941 16.289 14.803 15.548 15.544 C 14.801 16.294 13.912 16.89 12.934 17.295 C 11.955 17.701 10.906 17.908 9.846 17.906 C 8.787 17.908 7.738 17.7 6.76 17.295 C 5.782 16.89 4.893 16.294 4.146 15.544 C 3.914 15.312 3.696 15.066 3.495 14.808 L 4.906 13.706 C 4.933 13.685 4.955 13.656 4.967 13.622 C 4.979 13.589 4.982 13.553 4.974 13.519 C 4.967 13.484 4.95 13.453 4.925 13.427 C 4.901 13.402 4.87 13.384 4.835 13.376 L 0.717 12.368 C 0.6 12.34 0.485 12.429 0.485 12.548 L 0.469 16.791 C 0.469 16.948 0.649 17.037 0.771 16.938 L 2.093 15.905 C 3.895 18.209 6.698 19.688 9.848 19.688 C 15.22 19.688 19.587 15.382 19.688 10.036 C 19.688 10.011 19.684 9.986 19.675 9.963 C 19.666 9.939 19.652 9.918 19.634 9.9 C 19.617 9.882 19.596 9.868 19.573 9.858 C 19.55 9.849 19.525 9.844 19.5 9.844 L 19.5 9.844 Z" fill="currentColor" fill-rule="nonzero"></path>
</svg>