<svg xmlns="http://www.w3.org/2000/svg" width="18.750" height="18.751" viewBox="0 0 18.750 18.751" fill="none">
  <path d="M 16.692 13.779 C 16.106 13.192 15.42 12.713 14.667 12.364 C 15.729 11.504 16.406 10.191 16.406 8.719 C 16.406 6.122 14.241 3.992 11.644 4.032 C 9.087 4.072 7.027 6.155 7.027 8.719 C 7.027 10.191 7.706 11.504 8.766 12.364 C 8.013 12.713 7.327 13.192 6.741 13.779 C 5.461 15.061 4.734 16.754 4.688 18.558 C 4.687 18.583 4.691 18.608 4.7 18.632 C 4.71 18.655 4.723 18.676 4.741 18.694 C 4.758 18.712 4.779 18.726 4.802 18.736 C 4.825 18.746 4.85 18.751 4.875 18.751 L 6.188 18.751 C 6.288 18.751 6.373 18.671 6.375 18.57 C 6.42 17.211 6.97 15.938 7.938 14.972 C 8.434 14.474 9.023 14.08 9.672 13.811 C 10.321 13.542 11.016 13.405 11.719 13.407 C 13.146 13.407 14.489 13.962 15.499 14.972 C 16.465 15.938 17.016 17.211 17.063 18.57 C 17.065 18.671 17.149 18.751 17.25 18.751 L 18.563 18.751 C 18.588 18.751 18.612 18.746 18.635 18.736 C 18.658 18.726 18.679 18.712 18.697 18.694 C 18.714 18.676 18.728 18.655 18.737 18.632 C 18.746 18.608 18.751 18.583 18.75 18.558 C 18.703 16.754 17.977 15.061 16.692 13.779 Z M 11.719 11.719 C 10.917 11.719 10.163 11.408 9.598 10.84 C 9.314 10.559 9.09 10.224 8.939 9.854 C 8.788 9.484 8.713 9.088 8.719 8.689 C 8.726 7.92 9.033 7.177 9.57 6.626 C 10.132 6.05 10.884 5.729 11.688 5.719 C 12.483 5.712 13.254 6.022 13.821 6.577 C 14.402 7.147 14.721 7.908 14.721 8.719 C 14.721 9.521 14.409 10.273 13.842 10.84 C 13.564 11.12 13.233 11.342 12.869 11.492 C 12.504 11.643 12.113 11.72 11.719 11.719 Z M 5.848 9.338 C 5.827 9.134 5.815 8.928 5.815 8.719 C 5.815 8.347 5.85 7.983 5.916 7.629 C 5.932 7.545 5.888 7.458 5.81 7.423 C 5.491 7.28 5.198 7.083 4.945 6.835 C 4.647 6.546 4.412 6.198 4.256 5.813 C 4.1 5.428 4.026 5.014 4.038 4.599 C 4.059 3.847 4.362 3.132 4.889 2.593 C 5.468 2 6.246 1.676 7.073 1.686 C 7.821 1.693 8.543 1.981 9.089 2.492 C 9.274 2.665 9.434 2.858 9.567 3.064 C 9.614 3.136 9.706 3.167 9.785 3.139 C 10.198 2.996 10.634 2.895 11.081 2.848 C 11.213 2.834 11.288 2.694 11.229 2.576 C 10.467 1.069 8.911 0.029 7.111 0.001 C 4.512 -0.039 2.346 2.091 2.346 4.686 C 2.346 6.158 3.023 7.47 4.085 8.33 C 3.34 8.675 2.653 9.151 2.058 9.746 C 0.773 11.028 0.047 12.72 0 14.527 C -0.001 14.552 0.004 14.577 0.013 14.6 C 0.022 14.624 0.036 14.645 0.053 14.663 C 0.071 14.681 0.092 14.695 0.115 14.705 C 0.138 14.714 0.163 14.719 0.188 14.719 L 1.502 14.719 C 1.603 14.719 1.688 14.64 1.69 14.539 C 1.734 13.179 2.285 11.907 3.253 10.941 C 3.942 10.252 4.786 9.774 5.707 9.542 C 5.798 9.519 5.859 9.432 5.848 9.338 L 5.848 9.338 Z" fill="currentColor" fill-rule="nonzero"></path>
</svg>