<svg xmlns="http://www.w3.org/2000/svg" width="16.104" height="19.479" viewBox="0 0 16.104 19.479" fill="none">
  <path d="M 15.916 6.171 L 10.753 6.171 L 15.396 0.305 C 15.492 0.18 15.406 0 15.248 0 L 6.26 0 C 6.195 0 6.131 0.035 6.098 0.094 L 0.026 10.582 C -0.047 10.706 0.042 10.863 0.188 10.863 L 4.275 10.863 L 2.18 19.245 C 2.135 19.427 2.356 19.556 2.491 19.425 L 16.045 6.492 C 16.167 6.377 16.085 6.171 15.916 6.171 Z M 4.906 14.918 L 6.319 9.27 L 2.63 9.27 L 7.073 1.596 L 12.338 1.596 L 7.456 7.767 L 12.401 7.767 L 4.906 14.918 Z" fill="currentColor" fill-rule="nonzero"></path>
</svg>