<svg xmlns="http://www.w3.org/2000/svg" width="17.813" height="12" viewBox="0 0 17.813 12" fill="none">
  <path d="M 17.778 11.702 L 9.514 0.309 C 9.214 -0.103 8.6 -0.103 8.302 0.309 L 0.036 11.702 C 0.015 11.73 0.003 11.763 0.001 11.798 C -0.002 11.833 0.005 11.867 0.021 11.898 C 0.036 11.929 0.06 11.955 0.09 11.973 C 0.12 11.991 0.153 12 0.188 12 L 1.946 12 C 2.065 12 2.178 11.941 2.248 11.845 L 8.907 2.667 L 15.565 11.845 C 15.636 11.941 15.748 12 15.868 12 L 17.626 12 C 17.778 12 17.867 11.827 17.778 11.702 L 17.778 11.702 Z" fill="currentColor" fill-rule="nonzero"></path>
</svg>