<svg xmlns="http://www.w3.org/2000/svg" width="17.531" height="16.502" viewBox="0 0 17.531 16.502" fill="none">
  <path d="M 6.141 3.698 L 7.873 3.698 L 7.873 11.627 C 7.873 11.73 7.957 11.814 8.06 11.814 L 9.466 11.814 C 9.57 11.814 9.654 11.73 9.654 11.627 L 9.654 3.698 L 11.391 3.698 C 11.548 3.698 11.634 3.517 11.538 3.395 L 8.913 0.072 C 8.896 0.05 8.873 0.031 8.848 0.019 C 8.822 0.006 8.794 0 8.766 0 C 8.737 0 8.709 0.006 8.684 0.019 C 8.658 0.031 8.636 0.05 8.618 0.072 L 5.993 3.393 C 5.897 3.517 5.984 3.698 6.141 3.698 L 6.141 3.698 Z M 17.344 10.924 L 15.938 10.924 C 15.834 10.924 15.75 11.008 15.75 11.111 L 15.75 14.72 L 1.781 14.72 L 1.781 11.111 C 1.781 11.008 1.697 10.924 1.594 10.924 L 0.188 10.924 C 0.084 10.924 0 11.008 0 11.111 L 0 15.752 C 0 16.166 0.335 16.502 0.75 16.502 L 16.781 16.502 C 17.196 16.502 17.531 16.166 17.531 15.752 L 17.531 11.111 C 17.531 11.008 17.447 10.924 17.344 10.924 Z" fill="currentColor" fill-rule="nonzero"></path>
</svg>