<svg xmlns="http://www.w3.org/2000/svg" width="17.625" height="18.656" viewBox="0 0 17.625 18.656" fill="none">
  <path d="M 16.934 15.225 C 16.492 14.178 15.85 13.226 15.045 12.424 C 14.242 11.62 13.291 10.978 12.244 10.535 C 12.234 10.53 12.225 10.528 12.216 10.523 C 13.676 9.469 14.625 7.751 14.625 5.813 C 14.625 2.602 12.023 0 8.813 0 C 5.602 0 3 2.602 3 5.813 C 3 7.751 3.949 9.469 5.409 10.526 C 5.4 10.53 5.391 10.533 5.381 10.537 C 4.331 10.98 3.389 11.616 2.581 12.427 C 1.776 13.229 1.134 14.181 0.691 15.227 C 0.256 16.252 0.022 17.351 0 18.464 C -0.001 18.489 0.004 18.514 0.013 18.537 C 0.022 18.561 0.036 18.582 0.053 18.6 C 0.071 18.618 0.092 18.632 0.115 18.642 C 0.138 18.651 0.163 18.656 0.188 18.656 L 1.594 18.656 C 1.697 18.656 1.779 18.574 1.781 18.473 C 1.828 16.664 2.555 14.97 3.839 13.685 C 5.168 12.356 6.933 11.625 8.813 11.625 C 10.692 11.625 12.457 12.356 13.786 13.685 C 15.07 14.97 15.797 16.664 15.844 18.473 C 15.846 18.577 15.928 18.656 16.031 18.656 L 17.438 18.656 C 17.463 18.656 17.487 18.651 17.51 18.642 C 17.533 18.632 17.554 18.618 17.572 18.6 C 17.589 18.582 17.603 18.561 17.612 18.537 C 17.621 18.514 17.626 18.489 17.625 18.464 C 17.602 17.344 17.37 16.254 16.934 15.225 L 16.934 15.225 Z M 8.813 9.844 C 7.737 9.844 6.724 9.424 5.963 8.663 C 5.201 7.901 4.781 6.888 4.781 5.813 C 4.781 4.737 5.201 3.724 5.963 2.962 C 6.724 2.201 7.737 1.781 8.813 1.781 C 9.888 1.781 10.901 2.201 11.663 2.962 C 12.424 3.724 12.844 4.737 12.844 5.813 C 12.844 6.888 12.424 7.901 11.663 8.663 C 10.901 9.424 9.888 9.844 8.813 9.844 Z" fill="currentColor" fill-rule="nonzero"></path>
</svg>